<?xml version="1.0" standalone="no"?>
<!DOCTYPE svg PUBLIC "-//W3C//DTD SVG 20010904//EN"
 "http://www.w3.org/TR/2001/REC-SVG-20010904/DTD/svg10.dtd">
<svg version="1.0" xmlns="http://www.w3.org/2000/svg"
 width="962.000000pt" height="660.000000pt" viewBox="0 0 962.000000 660.000000"
 preserveAspectRatio="xMidYMid meet">

<g transform="translate(0.000000,660.000000) scale(0.100000,-0.100000)"
fill="#000000" stroke="none">
<path d="M2470 5995 l0 -355 70 0 70 0 0 355 0 355 -70 0 -70 0 0 -355z"/>
<path d="M5373 6200 c4 -66 12 -163 19 -215 l11 -96 46 3 46 3 11 91 c7 51 15
146 19 213 l7 121 -82 0 -83 0 6 -120z"/>
<path d="M915 6298 c3 -10 157 -524 191 -641 5 -15 15 -17 67 -15 l61 3 67
175 c37 96 70 173 75 172 5 -2 41 -81 80 -175 l71 -172 59 -3 59 -3 98 328
c54 180 98 331 97 336 0 4 -33 7 -74 7 l-74 0 -53 -187 c-29 -104 -55 -204
-59 -223 -4 -21 -9 -29 -12 -20 -3 8 -32 88 -64 178 l-58 163 -64 -3 -65 -3
-30 -80 c-16 -44 -44 -123 -62 -175 -30 -86 -34 -92 -40 -65 -8 34 -66 246
-96 348 l-20 67 -79 0 c-59 0 -78 -3 -75 -12z"/>
<path d="M2068 6151 c-144 -30 -231 -191 -186 -345 18 -59 99 -138 161 -155
93 -26 214 -10 275 37 l22 17 -25 35 c-15 19 -30 41 -34 47 -5 10 -16 8 -46
-8 -49 -25 -134 -21 -174 9 -28 21 -53 61 -45 74 3 4 81 8 175 8 l169 0 0 43
c0 157 -138 269 -292 238z m129 -144 c12 -12 23 -31 25 -42 3 -19 -3 -20 -96
-23 -114 -3 -130 4 -100 45 40 54 126 64 171 20z"/>
<path d="M2897 6146 c-62 -17 -115 -61 -149 -121 -73 -133 -29 -289 101 -359
45 -24 65 -29 120 -28 74 1 144 22 178 54 30 28 29 36 -12 81 l-34 39 -31 -24
c-24 -17 -45 -23 -87 -23 -50 0 -57 3 -89 37 -29 33 -34 45 -34 88 0 63 21
105 62 126 40 21 110 14 150 -16 l29 -21 39 43 38 43 -21 24 c-50 54 -174 81
-260 57z"/>
<path d="M3442 6150 c-77 -16 -157 -83 -188 -156 -18 -43 -18 -155 0 -198 22
-53 82 -112 139 -136 111 -48 256 -18 327 68 33 40 60 116 60 167 0 51 -27
127 -60 167 -58 70 -179 108 -278 88z m127 -134 c15 -8 36 -33 46 -55 55 -123
-53 -244 -165 -186 -85 44 -84 199 1 242 32 17 84 16 118 -1z"/>
<path d="M4957 6146 c-64 -18 -116 -62 -149 -126 -24 -44 -28 -65 -28 -129 0
-66 4 -83 30 -128 49 -86 123 -125 235 -125 51 0 86 6 123 22 76 33 79 41 42
94 l-31 46 -39 -20 c-69 -35 -155 -20 -198 35 -42 54 -38 55 154 55 l177 0 -6
60 c-7 67 -26 111 -66 153 -57 62 -156 88 -244 63z m118 -120 c34 -14 55 -41
55 -70 0 -14 -16 -16 -105 -16 -95 0 -105 2 -105 18 0 24 39 61 76 72 40 12
41 12 79 -4z"/>
<path d="M3890 5895 l0 -255 70 0 70 0 0 166 0 166 30 29 c25 26 36 30 72 27
68 -5 78 -35 78 -230 l0 -158 69 0 70 0 3 171 3 171 28 24 c37 31 96 33 123 3
17 -19 19 -41 22 -195 l3 -174 70 0 69 0 0 193 c0 219 -10 257 -72 295 -52 32
-147 31 -204 -3 -24 -14 -47 -33 -53 -42 -8 -15 -13 -12 -43 19 -40 43 -69 52
-143 46 -38 -3 -64 -12 -89 -31 l-34 -27 -7 30 c-6 30 -8 30 -71 30 l-64 0 0
-255z"/>
<path d="M5413 5790 c-27 -11 -43 -40 -43 -78 0 -39 27 -70 67 -78 27 -5 37
-1 63 24 43 44 36 107 -17 131 -28 13 -40 13 -70 1z"/>
<path d="M7921 5459 c-1 -24 -5 -27 -55 -33 -91 -10 -182 -44 -260 -97 -87
-58 -142 -116 -182 -194 -16 -30 -32 -55 -35 -55 -4 0 -12 7 -19 15 -10 12
-43 15 -181 15 -93 0 -169 -3 -169 -7 0 -5 72 -7 161 -5 130 2 165 0 184 -12
l23 -15 -19 -68 c-64 -229 34 -490 232 -622 34 -23 69 -41 78 -41 9 0 -7 14
-36 30 -94 54 -93 98 2 95 48 -1 170 -65 124 -65 -5 0 -7 -6 -4 -12 4 -7 0 -5
-8 5 -16 19 -67 33 -67 18 0 -5 12 -19 28 -30 22 -16 23 -20 9 -21 -10 0 -16
-4 -12 -10 3 -5 82 -9 190 -9 157 1 183 3 178 16 -3 8 -14 13 -24 10 -19 -5
-25 9 -11 29 13 20 146 78 150 65 2 -6 10 -11 17 -11 8 0 21 -7 29 -15 14 -14
18 -14 46 6 l30 23 -36 37 -37 38 -46 -38 c-129 -108 -314 -126 -473 -48 -34
17 -67 33 -72 35 -5 3 -5 -1 -1 -8 6 -9 4 -11 -4 -6 -7 5 -10 10 -7 13 3 3
-19 32 -49 65 -62 69 -98 140 -116 227 -17 78 -1 179 41 269 57 123 206 235
330 249 30 3 60 9 65 14 6 5 9 -9 7 -40 l-4 -47 -71 -17 c-232 -54 -352 -301
-248 -512 37 -74 97 -132 180 -172 48 -24 69 -27 146 -28 78 0 98 4 150 28 33
16 72 40 88 55 l27 26 71 -69 70 -70 -38 -34 c-21 -18 -60 -46 -88 -62 -27
-16 -42 -29 -32 -29 22 0 86 40 137 86 23 21 41 31 45 24 4 -6 70 -9 188 -8
l182 2 -175 3 c-96 2 -178 7 -183 12 -4 4 12 37 37 74 24 36 54 91 65 123 20
52 25 76 34 169 4 29 5 30 68 36 l64 6 -67 1 -68 2 0 44 c0 93 -58 227 -139
317 -38 44 -40 47 -23 63 15 13 52 16 233 19 l214 2 -222 3 c-213 2 -223 1
-233 -18 -10 -19 -12 -18 -59 15 -74 53 -168 93 -256 107 -71 12 -80 16 -86
38 l-7 25 -1 -26z m129 -60 c28 -6 49 -13 47 -15 -2 -2 -22 0 -43 4 -32 7 -44
5 -67 -11 -25 -17 -32 -18 -60 -6 -18 7 -35 17 -38 22 -7 10 -89 0 -110 -14
-12 -8 -12 -10 1 -19 8 -5 11 -10 5 -10 -5 0 0 -6 12 -13 30 -17 19 -28 -57
-63 -56 -26 -71 -29 -108 -21 -26 5 -41 13 -39 20 3 7 10 11 16 10 14 -4 14 4
1 12 -5 3 -30 -13 -55 -36 -46 -42 -58 -63 -29 -52 12 4 14 0 8 -21 -5 -22 -3
-28 14 -32 19 -5 18 -9 -14 -62 -18 -32 -37 -63 -42 -71 -7 -12 -13 -10 -35 9
-14 13 -24 27 -21 31 2 4 -1 11 -7 15 -8 4 -9 3 -5 -4 4 -7 2 -12 -3 -12 -18
0 -12 22 20 78 66 116 212 224 345 256 72 18 195 20 264 5z m155 -58 c75 -39
184 -153 223 -234 19 -37 31 -73 29 -80 -3 -7 -6 -5 -6 5 -1 25 -20 32 -39 15
-39 -32 -50 -28 -81 30 -24 44 -28 58 -18 67 22 19 53 60 39 52 -7 -4 -12 -4
-11 1 4 20 -4 31 -45 66 -39 32 -48 36 -70 27 -14 -5 -26 -6 -26 -1 0 5 -14
14 -31 20 -23 8 -29 15 -25 29 5 13 -1 22 -16 30 -23 12 -23 12 2 6 14 -3 48
-18 75 -33z m-160 -55 c28 -7 70 -23 94 -36 57 -29 146 -112 178 -168 28 -48
63 -151 63 -188 0 -22 -4 -24 -45 -24 -43 0 -45 1 -45 30 0 53 -40 138 -91
194 -56 62 -126 100 -211 117 -50 10 -58 15 -58 34 0 58 22 66 115 41z m141
-21 c16 -12 17 -14 2 -15 -25 0 -49 11 -42 21 7 13 17 11 40 -6z m-131 -86
c33 -12 77 -41 110 -70 193 -178 133 -485 -115 -583 -65 -26 -179 -25 -252 3
-155 60 -252 233 -219 393 24 113 119 223 223 259 74 25 182 25 253 -2z m-600
-177 c-3 -3 -14 3 -26 13 -17 17 -22 17 -29 5 -11 -17 -13 -9 -4 14 5 13 10
12 35 -6 16 -12 27 -24 24 -26z m1030 -79 l7 -53 -45 0 c-47 0 -69 13 -41 24
10 4 14 13 10 22 -4 10 3 18 25 26 27 9 29 14 24 42 -4 23 -3 26 4 11 5 -11
12 -44 16 -72z m-1099 43 c-5 -24 -3 -35 8 -39 7 -3 16 -22 18 -42 3 -28 0
-39 -14 -46 -12 -7 -18 -21 -18 -46 0 -20 -2 -34 -6 -31 -14 15 -2 238 13 238
3 0 2 -15 -1 -34z m991 -164 c-4 -32 -9 -67 -13 -78 -7 -19 -6 -19 8 0 15 19
16 19 51 -1 l35 -21 6 34 c5 25 2 38 -13 53 -11 11 -22 17 -25 14 -3 -4 -6 3
-6 15 0 11 -8 23 -17 25 -10 3 6 5 36 6 l53 1 -7 -56 c-7 -55 -37 -159 -57
-199 -6 -11 -26 -41 -45 -67 l-35 -48 -73 66 -74 66 30 41 c31 42 59 122 59
167 0 35 6 40 53 40 l40 0 -6 -58z m-901 -54 c12 -40 28 -88 35 -106 14 -33
13 -35 -18 -62 l-33 -29 56 -61 c31 -33 51 -60 45 -60 -18 0 -113 121 -107
137 3 8 1 11 -4 8 -6 -4 -21 18 -35 48 -29 67 -42 127 -26 127 6 0 17 12 24
28 11 25 25 41 37 42 3 0 15 -33 26 -72z"/>
<path d="M8345 4681 c-3 -11 -22 -43 -40 -70 l-34 -50 35 -31 c38 -33 53 -31
76 14 6 12 7 18 3 14 -9 -8 -35 15 -35 31 0 6 -4 11 -10 11 -15 0 -12 27 6 61
8 17 13 33 11 36 -3 2 -8 -5 -12 -16z"/>
<path d="M8693 5463 c-7 -3 -13 -9 -13 -14 0 -6 5 -7 10 -4 14 9 12 -39 -2
-53 -9 -9 -7 -12 9 -12 19 0 21 4 16 43 -7 49 -5 45 -20 40z"/>
<path d="M8807 5464 c-13 -13 -7 -44 8 -44 18 0 19 -12 3 -28 -7 -7 -8 -12 -2
-12 5 0 15 10 23 21 10 18 10 23 0 30 -7 4 -17 5 -21 3 -4 -3 -8 0 -8 6 0 7 7
9 16 6 10 -4 14 -1 12 6 -5 14 -22 21 -31 12z"/>
<path d="M8740 5441 c0 -10 10 -22 23 -26 l22 -8 -22 -4 c-30 -6 -30 -25 -1
-21 30 4 37 38 9 45 -26 7 -27 20 -3 26 13 4 11 5 -5 6 -16 1 -23 -5 -23 -18z"/>
<path d="M8857 5453 c-9 -17 -1 -67 10 -70 21 -7 28 28 9 43 -10 7 -15 17 -11
23 3 6 4 11 1 11 -3 0 -7 -3 -9 -7z m23 -49 c0 -8 -5 -12 -10 -9 -6 4 -8 11
-5 16 9 14 15 11 15 -7z"/>
<path d="M7017 5243 c-15 -15 -7 -43 13 -43 11 0 20 -4 20 -10 0 -5 -10 -10
-22 -10 -19 0 -20 -2 -8 -10 10 -6 19 -5 28 4 15 15 6 46 -15 46 -8 0 -11 5
-8 10 4 6 11 8 16 5 5 -4 9 -1 9 4 0 12 -23 15 -33 4z"/>
<path d="M7074 5235 c-9 -23 14 -45 26 -25 5 8 8 19 7 24 -6 17 -27 18 -33 1z
m26 -5 c0 -5 -4 -10 -10 -10 -5 0 -10 5 -10 10 0 6 5 10 10 10 6 0 10 -4 10
-10z"/>
<path d="M7115 5210 c-24 -38 -34 -64 -17 -44 16 17 54 84 48 84 -3 0 -17 -18
-31 -40z"/>
<path d="M6220 5209 c-13 -9 -12 -10 3 -5 13 4 17 -1 17 -23 0 -16 -6 -32 -12
-34 -7 -3 1 -5 17 -5 17 0 24 2 18 5 -7 2 -13 20 -13 39 0 36 -6 40 -30 23z"/>
<path d="M6300 5196 c0 -19 4 -23 20 -19 14 4 20 0 20 -12 0 -12 -6 -16 -20
-12 -11 3 -20 1 -20 -4 0 -13 34 -11 48 3 14 14 -2 38 -24 38 -23 0 -16 18 9
23 19 4 18 4 -5 6 -23 1 -28 -3 -28 -23z"/>
<path d="M6410 5205 c-10 -12 -10 -21 -1 -41 17 -38 46 -28 46 16 0 39 -23 52
-45 25z m38 -20 c-2 -14 -7 -26 -13 -26 -5 0 -11 12 -13 26 -2 18 1 25 13 25
12 0 15 -7 13 -25z"/>
<path d="M6484 5209 c-3 -6 -1 -16 6 -22 10 -9 11 -9 5 2 -4 8 -2 17 6 22 9 6
10 9 2 9 -6 0 -15 -5 -19 -11z"/>
<path d="M7133 5194 c-8 -21 13 -42 28 -27 13 13 5 43 -11 43 -6 0 -13 -7 -17
-16z m22 -4 c3 -5 1 -10 -4 -10 -6 0 -11 5 -11 10 0 6 2 10 4 10 3 0 8 -4 11
-10z"/>
<path d="M6539 5183 c-13 -16 -12 -17 4 -4 9 7 17 15 17 17 0 8 -8 3 -21 -13z"/>
<path d="M4704 5169 c0 -11 4 -19 8 -19 4 0 8 5 8 11 0 8 4 8 15 -1 8 -6 19
-9 25 -5 19 12 5 29 -26 31 -23 1 -30 -3 -30 -17z m56 1 c0 -5 -4 -10 -10 -10
-5 0 -10 5 -10 10 0 6 5 10 10 10 6 0 10 -4 10 -10z"/>
<path d="M6555 5169 c-4 -6 -4 -13 -1 -16 3 -4 6 -1 6 5 0 7 5 12 11 12 6 0 8
-7 4 -17 -5 -14 -3 -15 6 -6 12 12 5 33 -11 33 -5 0 -12 -5 -15 -11z"/>
<path d="M5487 5164 c-4 -4 -4 -10 -1 -15 6 -10 34 0 34 12 0 10 -24 12 -33 3z"/>
<path d="M4833 5153 c20 -5 25 -78 5 -86 -10 -4 -10 -6 0 -6 7 -1 12 -17 12
-45 0 -34 -4 -46 -17 -49 -17 -4 -17 -5 0 -6 13 -1 17 -10 17 -45 0 -26 -5
-46 -12 -49 -10 -4 -10 -6 0 -6 7 -1 12 -17 12 -45 0 -26 -5 -46 -12 -49 -10
-4 -10 -6 0 -6 7 -1 12 -15 12 -35 0 -19 -6 -37 -12 -39 -7 -3 439 -5 992 -4
l1005 2 -990 5 c-544 3 -985 7 -980 8 6 2 60 3 120 3 77 -1 106 1 95 9 -8 5
-23 10 -32 10 -25 0 -22 19 5 30 41 16 -7 10 -100 -14 l-93 -24 0 224 0 224
-22 -1 c-17 -1 -19 -2 -5 -6z"/>
<path d="M6378 5143 c7 -3 16 -2 19 1 4 3 -2 6 -13 5 -11 0 -14 -3 -6 -6z"/>
<path d="M3122 5104 c-31 -22 -26 -63 11 -84 24 -13 30 -13 55 0 36 21 41 62
10 84 -12 9 -29 16 -38 16 -9 0 -26 -7 -38 -16z"/>
<path d="M4734 5079 c-10 -17 13 -36 27 -22 12 12 4 33 -11 33 -5 0 -12 -5
-16 -11z m26 -9 c0 -5 -4 -10 -10 -10 -5 0 -10 5 -10 10 0 6 5 10 10 10 6 0
10 -4 10 -10z"/>
<path d="M1760 4839 l0 -240 48 3 47 3 3 238 2 237 -50 0 -50 0 0 -241z"/>
<path d="M2702 4843 l3 -238 50 0 50 0 5 60 c3 38 10 60 17 60 7 0 34 -27 60
-60 48 -59 49 -60 106 -63 31 -2 57 0 57 3 0 3 -34 47 -75 98 l-75 92 75 74
c41 40 75 75 75 77 0 2 -28 4 -63 4 l-63 0 -54 -55 -55 -56 -5 118 -5 118 -53
3 -52 3 2 -238z"/>
<path d="M4705 5060 c-3 -5 -1 -10 4 -10 6 0 11 5 11 10 0 6 -2 10 -4 10 -3 0
-8 -4 -11 -10z"/>
<path d="M5490 4978 c-138 -110 -158 -122 -174 -109 -18 15 -34 -5 -17 -22 8
-8 11 -8 11 2 0 7 5 9 10 6 6 -4 25 3 43 14 27 16 36 18 47 8 10 -9 11 -9 6 0
-4 7 2 17 14 23 11 6 18 15 15 20 -3 4 13 23 36 41 33 26 43 29 50 18 8 -13
13 -5 10 14 -1 5 12 6 29 2 22 -5 30 -3 30 7 0 7 11 1 25 -14 13 -16 29 -28
34 -28 6 0 8 -7 5 -15 -4 -8 -11 -12 -18 -8 -6 4 -4 -4 5 -17 10 -15 27 -25
41 -26 31 0 50 -13 41 -27 -4 -8 -1 -7 9 1 13 10 18 10 24 1 4 -8 3 -9 -4 -5
-7 4 -12 2 -12 -3 0 -17 -27 -13 -34 4 -5 14 -36 22 -36 9 0 -10 28 -34 41
-34 8 0 5 -7 -6 -20 -10 -11 -24 -20 -32 -20 -7 0 -13 -9 -13 -20 0 -22 -8
-25 -30 -10 -13 9 -13 11 0 20 12 8 11 10 -6 10 -12 0 -27 7 -34 15 -7 8 -18
14 -24 14 -6 -1 -20 2 -30 6 -13 6 -23 3 -31 -8 -7 -10 -17 -17 -22 -17 -6 0
-16 -7 -23 -15 -7 -8 -21 -15 -31 -15 -11 0 -19 -4 -19 -9 0 -14 -39 -24 -53
-13 -7 5 -38 8 -69 6 -31 -2 -60 1 -63 6 -4 6 6 10 22 10 22 0 25 2 13 10 -12
7 -12 10 -1 10 7 0 11 6 7 15 -3 8 0 15 6 15 6 0 9 2 6 5 -2 3 -52 -13 -109
-35 -57 -22 -99 -40 -92 -40 6 0 23 4 37 10 20 7 28 6 38 -9 7 -10 23 -23 36
-30 12 -7 20 -16 17 -22 -4 -5 142 -9 389 -9 257 0 396 4 396 10 0 6 -10 10
-23 10 -13 0 -36 14 -52 30 -16 17 -35 28 -43 25 -7 -2 -11 -1 -7 4 7 13 -75
82 -88 74 -6 -3 -7 -2 -4 4 4 6 -42 51 -101 100 l-107 89 -85 -68z"/>
<path d="M4711 4962 c0 -11 2 -12 6 -4 2 6 9 10 13 7 5 -3 11 -2 14 3 2 4 -4
9 -15 9 -12 1 -19 -4 -18 -15z"/>
<path d="M4752 4954 c-7 -8 -8 -14 -3 -14 10 0 25 19 20 25 -2 1 -10 -3 -17
-11z"/>
<path d="M6275 4949 c-10 -15 1 -23 20 -15 9 3 13 10 10 16 -8 13 -22 13 -30
-1z"/>
<path d="M937 4944 c-10 -11 -8 -202 3 -249 19 -85 110 -121 185 -75 l33 20 5
-21 c5 -17 12 -20 49 -17 l43 3 0 170 0 170 -50 0 -50 0 -3 -117 c-3 -114 -3
-118 -28 -135 -24 -15 -29 -15 -53 -2 -25 14 -26 18 -31 134 l-5 120 -45 3
c-25 2 -49 0 -53 -4z"/>
<path d="M1350 4775 l0 -175 50 0 50 0 0 114 c0 129 7 146 65 146 48 0 55 -20
55 -149 l0 -111 50 0 50 0 0 125 c0 136 -11 180 -51 209 -32 22 -97 20 -136
-3 -31 -19 -31 -19 -36 0 -4 15 -14 19 -51 19 l-46 0 0 -175z"/>
<path d="M2025 4936 c-116 -52 -141 -202 -49 -288 103 -96 284 -40 310 97 13
71 -37 164 -103 191 -41 18 -119 17 -158 0z m121 -84 c19 -12 34 -49 34 -83 0
-44 -34 -79 -77 -79 -48 0 -73 29 -73 85 0 55 25 85 73 85 17 0 37 -4 43 -8z"/>
<path d="M2440 4943 c-37 -14 -74 -49 -91 -87 -70 -154 77 -307 233 -242 55
24 64 40 38 76 -24 34 -28 35 -54 15 -40 -30 -99 -17 -121 26 -21 39 -19 72 6
103 24 31 81 36 118 9 23 -16 25 -15 48 13 12 16 23 34 23 41 0 21 -83 53
-136 52 -27 0 -56 -3 -64 -6z"/>
<path d="M3110 4775 l0 -175 50 0 50 0 0 175 0 175 -50 0 -50 0 0 -175z"/>
<path d="M3310 4775 l0 -175 50 0 50 0 0 114 c0 132 8 149 69 144 l36 -3 5
-125 5 -125 50 0 50 0 3 100 c4 139 -3 182 -39 218 -27 27 -34 29 -84 25 -32
-3 -63 -12 -74 -22 -17 -16 -19 -16 -24 4 -4 16 -13 20 -51 20 l-46 0 0 -175z"/>
<path d="M3775 4931 c-41 -25 -60 -49 -75 -95 -36 -113 39 -226 150 -226 25 0
55 7 66 15 27 20 34 19 34 -10 0 -57 -74 -87 -150 -61 -24 8 -45 14 -46 13 -1
-1 -9 -17 -18 -35 l-17 -33 47 -20 c65 -29 166 -24 217 11 61 42 67 67 67 275
l0 185 -45 0 c-30 0 -47 -5 -51 -14 -5 -12 -10 -12 -39 0 -47 19 -104 18 -140
-5z m155 -91 c28 -28 27 -96 -2 -127 -27 -29 -77 -30 -109 -4 -31 25 -34 98
-5 130 26 28 88 29 116 1z"/>
<path d="M6757 4943 c-9 -2 -15 -9 -11 -14 3 -5 10 -7 15 -4 5 4 9 -1 9 -9 0
-21 -26 -21 -34 0 -7 18 -43 13 -116 -17 -35 -14 -40 -18 -20 -18 14 -1 32 -1
40 -2 8 -1 27 2 43 6 29 8 33 -2 28 -67 -2 -19 2 -28 13 -28 21 0 29 -18 14
-33 -15 -14 -76 -16 -96 -3 -8 4 -44 4 -80 0 -37 -4 -71 -8 -77 -9 -5 0 -18
-6 -29 -11 -35 -20 4 -29 147 -32 120 -3 137 -2 137 12 0 9 5 16 11 16 5 0 7
5 4 10 -3 6 -1 10 4 10 6 0 11 -12 12 -27 1 -20 4 -15 10 17 9 45 8 211 -1
209 -3 -1 -13 -3 -23 -6z"/>
<path d="M8908 4939 c-20 -11 -24 -39 -7 -39 6 0 17 7 26 15 8 8 19 13 24 10
17 -11 9 -38 -26 -81 -40 -49 -42 -54 -17 -54 11 0 31 21 51 54 26 44 30 58
22 74 -16 31 -44 38 -73 21z"/>
<path d="M9182 4941 c-8 -5 -12 -21 -10 -37 2 -23 8 -29 28 -29 20 0 26 6 28
29 3 25 -10 46 -28 46 -3 0 -11 -4 -18 -9z m35 -27 c8 -21 -13 -42 -28 -27
-13 13 -5 43 11 43 6 0 13 -7 17 -16z"/>
<path d="M9248 4874 c-26 -43 -44 -81 -41 -84 3 -3 8 0 10 7 2 7 22 40 44 74
22 33 38 66 37 71 -2 6 -25 -25 -50 -68z"/>
<path d="M8763 4925 c-8 -24 5 -30 24 -13 21 18 43 13 43 -10 0 -9 -18 -37
-41 -64 l-40 -48 56 0 c34 0 54 4 50 10 -3 5 -20 6 -38 3 l-31 -6 30 39 c38
48 44 64 32 87 -11 22 -76 24 -85 2z"/>
<path d="M9052 4928 c-17 -17 -16 -113 2 -127 8 -7 27 -11 43 -9 34 4 51 50
37 106 -8 31 -14 37 -39 40 -17 2 -36 -3 -43 -10z m56 -56 c2 -41 0 -54 -13
-59 -31 -11 -48 55 -24 98 17 33 34 16 37 -39z"/>
<path d="M5072 4898 c5 -15 28 -18 29 -3 0 6 -7 12 -17 13 -10 3 -15 -1 -12
-10z"/>
<path d="M4709 4889 c0 -2 -2 -12 -4 -21 -2 -10 1 -18 6 -18 5 0 9 5 9 10 0 6
8 5 20 -2 10 -7 22 -9 26 -6 10 10 -3 38 -18 38 -9 0 -9 -3 2 -10 8 -5 11 -12
7 -16 -4 -4 -16 1 -27 11 -11 10 -20 16 -21 14z"/>
<path d="M9282 4858 c-29 -29 -1 -84 36 -71 18 7 15 70 -4 77 -20 8 -18 8 -32
-6z m38 -27 c0 -11 -5 -23 -11 -27 -15 -9 -33 12 -26 30 9 23 37 20 37 -3z"/>
<path d="M6427 4827 c-43 -17 -74 -34 -70 -38 5 -4 24 -16 43 -26 31 -17 37
-18 63 -5 17 9 26 20 23 28 -3 8 0 14 6 14 7 0 6 5 -2 15 -14 17 -14 17 15 33
34 19 3 11 -78 -21z m43 -47 c0 -5 -4 -10 -10 -10 -5 0 -10 5 -10 10 0 6 5 10
10 10 6 0 10 -4 10 -10z"/>
<path d="M8995 4810 c-4 -6 -3 -16 3 -22 6 -6 12 -6 17 2 4 6 3 16 -3 22 -6 6
-12 6 -17 -2z"/>
<path d="M5940 4784 c0 -9 7 -14 17 -12 25 5 28 28 4 28 -12 0 -21 -6 -21 -16z"/>
<path d="M4708 4783 c10 -4 10 -8 1 -19 -8 -10 -8 -14 0 -14 6 0 11 5 11 11 0
8 5 7 15 -1 11 -9 19 -10 27 -2 12 12 3 32 -15 32 -7 0 -6 -4 3 -10 8 -5 11
-12 7 -16 -4 -4 -15 0 -25 9 -10 10 -23 17 -28 16 -5 0 -3 -3 4 -6z"/>
<path d="M6295 4775 c-25 -12 -26 -14 -5 -9 28 7 60 23 45 23 -5 0 -23 -6 -40
-14z"/>
<path d="M6210 4750 c-19 -5 -73 -12 -120 -17 l-85 -8 70 -8 c39 -4 106 -10
150 -13 72 -5 78 -4 60 9 -11 9 -24 13 -29 10 -5 -4 -7 4 -4 15 4 12 3 22 0
21 -4 -1 -23 -5 -42 -9z"/>
<path d="M4747 4693 c-13 -12 -7 -33 8 -33 8 0 15 9 15 20 0 20 -11 26 -23 13z"/>
<path d="M4911 4614 c0 -11 3 -14 6 -6 3 7 2 16 -1 19 -3 4 -6 -2 -5 -13z"/>
<path d="M5176 4615 c-3 -8 -1 -15 4 -15 6 0 10 7 10 15 0 8 -2 15 -4 15 -2 0
-6 -7 -10 -15z"/>
<path d="M5441 4614 c0 -11 3 -14 6 -6 3 7 2 16 -1 19 -3 4 -6 -2 -5 -13z"/>
<path d="M5711 4614 c0 -11 3 -14 6 -6 3 7 2 16 -1 19 -3 4 -6 -2 -5 -13z"/>
<path d="M5981 4614 c0 -11 3 -14 6 -6 3 7 2 16 -1 19 -3 4 -6 -2 -5 -13z"/>
<path d="M6251 4614 c0 -11 3 -14 6 -6 3 7 2 16 -1 19 -3 4 -6 -2 -5 -13z"/>
<path d="M6511 4614 c0 -11 3 -14 6 -6 3 7 2 16 -1 19 -3 4 -6 -2 -5 -13z"/>
<path d="M4892 4502 c4 -23 62 -22 66 0 2 12 -5 16 -33 16 -28 0 -35 -4 -33
-16z m28 -2 c0 -5 -4 -10 -10 -10 -5 0 -10 5 -10 10 0 6 5 10 10 10 6 0 10 -4
10 -10z m30 0 c0 -5 -2 -10 -4 -10 -3 0 -8 5 -11 10 -3 6 -1 10 4 10 6 0 11
-4 11 -10z"/>
<path d="M5154 4509 c-3 -5 3 -6 12 -2 13 5 16 2 12 -8 -4 -11 1 -15 21 -14
40 0 34 29 -7 31 -18 1 -35 -2 -38 -7z m66 -9 c0 -5 -4 -10 -10 -10 -5 0 -10
5 -10 10 0 6 5 10 10 10 6 0 10 -4 10 -10z"/>
<path d="M5432 4501 c4 -21 62 -20 66 1 2 12 -5 16 -33 15 -26 -1 -35 -5 -33
-16z m58 -1 c0 -5 -2 -10 -4 -10 -3 0 -8 5 -11 10 -3 6 -1 10 4 10 6 0 11 -4
11 -10z"/>
<path d="M5684 4508 c-5 -8 -2 -9 9 -5 10 3 17 2 17 -2 0 -5 -6 -11 -12 -14
-7 -2 3 -4 22 -3 36 2 50 25 20 33 -13 4 -13 3 0 -6 8 -5 11 -13 7 -17 -4 -4
-15 0 -25 9 -22 20 -28 21 -38 5z"/>
<path d="M5952 4504 c3 -19 64 -28 74 -12 11 18 -14 32 -31 18 -10 -8 -15 -9
-15 -1 0 6 -7 11 -16 11 -9 0 -14 -7 -12 -16z m68 2 c0 -3 -4 -8 -10 -11 -5
-3 -10 -1 -10 4 0 6 5 11 10 11 6 0 10 -2 10 -4z"/>
<path d="M6225 4510 c-4 -6 -3 -10 2 -9 19 3 27 -2 15 -9 -8 -6 -2 -9 17 -9
17 0 32 6 35 13 7 19 -12 28 -29 14 -11 -9 -15 -9 -15 -1 0 14 -17 14 -25 1z"/>
<path d="M6488 4513 c10 -4 10 -8 1 -19 -9 -11 -8 -14 3 -14 7 0 14 9 15 20 1
13 -4 20 -15 19 -11 0 -13 -2 -4 -6z"/>
<path d="M6544 4509 c-10 -17 13 -36 27 -22 12 12 4 33 -11 33 -5 0 -12 -5
-16 -11z m26 -9 c0 -5 -4 -10 -10 -10 -5 0 -10 5 -10 10 0 6 5 10 10 10 6 0
10 -4 10 -10z"/>
<path d="M6750 4508 c0 -5 5 -6 10 -3 6 3 10 2 10 -4 0 -5 -6 -12 -12 -14 -7
-3 3 -5 22 -4 23 2 36 8 38 19 2 12 -5 16 -32 16 -20 0 -36 -4 -36 -10z"/>
<path d="M9188 4429 c-35 -20 -12 -88 25 -73 19 7 26 34 16 62 -9 24 -16 26
-41 11z m32 -34 c0 -16 -6 -25 -15 -25 -9 0 -15 9 -15 25 0 16 6 25 15 25 9 0
15 -9 15 -25z"/>
<path d="M9272 4393 c-17 -26 -29 -49 -26 -52 2 -2 5 -2 7 0 28 40 58 92 54
95 -2 3 -18 -17 -35 -43z"/>
<path d="M8764 4415 c-8 -21 3 -32 18 -17 19 19 48 14 48 -7 0 -11 -4 -23 -10
-26 -14 -9 -12 -25 3 -25 22 0 43 48 31 68 -15 23 -82 29 -90 7z"/>
<path d="M8890 4420 c0 -5 16 -10 36 -10 31 0 35 -3 29 -17 -15 -37 -17 -53
-6 -53 10 0 41 61 41 81 0 5 -22 9 -50 9 -27 0 -50 -4 -50 -10z"/>
<path d="M9050 4411 c-15 -30 -13 -71 5 -71 8 0 14 3 14 8 -6 35 3 62 20 62
20 0 31 -18 31 -51 0 -10 5 -19 10 -19 14 0 12 64 -2 78 -19 19 -66 15 -78 -7z"/>
<path d="M909 4411 c9 -6 10 -11 2 -15 -6 -4 -9 -12 -5 -17 8 -14 24 0 24 22
0 11 -7 19 -17 19 -14 0 -15 -2 -4 -9z"/>
<path d="M944 4409 c-3 -6 0 -17 8 -25 13 -13 16 -13 27 0 7 8 10 20 6 26 -8
13 -32 13 -41 -1z m26 -15 c0 -8 -4 -12 -10 -9 -5 3 -10 10 -10 16 0 5 5 9 10
9 6 0 10 -7 10 -16z"/>
<path d="M7260 4400 c0 -6 50 -10 130 -10 80 0 130 4 130 10 0 6 -50 10 -130
10 -80 0 -130 -4 -130 -10z"/>
<path d="M7141 4387 c-17 -17 -13 -27 15 -37 21 -9 29 -7 40 7 22 29 16 40 -7
13 -18 -23 -20 -23 -14 -4 6 25 -16 39 -34 21z m29 -11 c0 -3 -4 -8 -10 -11
-5 -3 -10 -1 -10 4 0 6 5 11 10 11 6 0 10 -2 10 -4z"/>
<path d="M1038 4383 c7 -3 12 -24 12 -53 0 -29 -5 -50 -12 -53 -10 -4 -10 -6
0 -6 9 -1 12 -30 12 -111 0 -81 -3 -110 -12 -110 -10 0 -10 -2 0 -9 9 -5 13
-27 12 -62 -1 -30 -1 -80 -1 -111 l1 -58 1253 2 c849 2 1093 4 757 8 -272 3
-465 6 -427 8 37 1 67 6 67 11 0 5 8 7 19 4 10 -3 21 2 24 10 4 12 -11 17 -76
27 -76 12 -88 17 -167 75 -110 79 -107 78 -127 66 -10 -6 -13 -11 -6 -11 6 0
13 -10 15 -22 2 -12 10 -23 18 -25 13 -4 13 -3 0 6 -11 8 -11 11 -2 11 7 0 15
-7 19 -16 4 -11 13 -14 30 -10 32 9 68 -11 53 -29 -8 -10 -8 -15 1 -21 7 -4 9
-3 5 4 -3 6 -2 13 3 16 5 4 12 2 15 -3 8 -12 -30 -44 -43 -36 -6 3 -11 1 -11
-4 0 -6 -19 -12 -42 -12 -28 -1 -34 -3 -18 -6 30 -6 50 -22 30 -25 -8 0 5 -4
30 -8 28 -4 -10 -7 -105 -7 -88 -1 -137 2 -118 7 17 4 39 15 48 24 11 11 22
13 32 7 22 -12 55 -1 51 17 -3 15 -58 37 -58 24 0 -10 -92 -9 -107 1 -7 5 -18
5 -25 1 -7 -4 -8 -3 -4 4 4 7 14 12 22 12 8 0 14 4 14 9 0 9 31 23 55 26 21 2
44 17 49 32 4 9 -22 -1 -70 -26 -67 -36 -79 -40 -93 -28 -9 8 -73 64 -143 125
l-127 111 -45 -25 c-26 -15 -43 -30 -40 -36 4 -7 2 -8 -4 -4 -6 4 -31 -4 -54
-16 -24 -13 -52 -26 -63 -30 -14 -4 -9 -6 15 -5 19 0 47 9 61 19 14 9 29 15
32 12 3 -3 13 5 21 19 17 25 60 50 70 40 3 -4 6 -15 6 -25 0 -24 40 -40 59
-24 12 9 13 8 6 -3 -5 -9 -4 -12 3 -7 6 3 14 1 18 -5 4 -7 3 -9 -4 -5 -6 3
-14 1 -18 -5 -5 -9 -1 -10 14 -7 26 7 38 -8 37 -44 -1 -18 5 -28 18 -32 12 -3
16 -9 11 -17 -4 -8 -3 -10 5 -5 6 4 18 2 26 -4 11 -9 15 -9 15 -1 0 20 24 11
59 -20 35 -32 31 -48 -11 -49 -10 0 -18 -4 -18 -10 0 -5 -7 -10 -15 -10 -8 0
-15 6 -15 13 0 8 -4 7 -10 -3 -6 -10 -10 -11 -10 -2 0 6 1 14 3 17 1 2 -13 16
-32 30 -35 25 -81 34 -81 15 0 -5 5 -10 12 -10 6 0 8 -3 5 -6 -4 -4 -13 -1
-22 6 -13 10 -19 10 -33 -4 -10 -9 -31 -16 -46 -16 -18 0 -25 -4 -20 -12 4 -7
3 -8 -4 -4 -6 3 -27 7 -46 8 -19 1 -33 5 -30 10 3 4 -13 8 -35 8 -23 0 -41 -5
-41 -11 0 -6 -8 -8 -19 -4 -11 3 -28 1 -39 -6 -12 -7 -27 -9 -38 -4 -26 11
-144 14 -144 3 0 -5 7 -11 15 -14 14 -6 14 -8 -1 -19 -16 -11 -16 -12 0 -18
12 -5 15 -3 10 6 -4 6 1 4 12 -5 18 -16 54 -18 360 -21 224 -1 148 -3 -225 -4
l-564 -2 7 284 6 285 -22 -1 c-13 0 -17 -3 -10 -6z"/>
<path d="M7080 4368 c0 -17 6 -23 25 -24 14 -1 22 2 19 7 -3 5 -12 9 -20 9
-20 0 -18 18 4 23 13 4 11 5 -5 6 -18 1 -23 -4 -23 -21z"/>
<path d="M9293 4343 c9 -2 23 -2 30 0 6 3 -1 5 -18 5 -16 0 -22 -2 -12 -5z"/>
<path d="M3255 4320 c-4 -7 -3 -16 3 -22 14 -14 47 -6 47 12 0 18 -40 26 -50
10z"/>
<path d="M908 4303 c7 -3 16 -2 19 1 4 3 -2 6 -13 5 -11 0 -14 -3 -6 -6z"/>
<path d="M943 4294 c-8 -21 13 -42 28 -27 13 13 5 43 -11 43 -6 0 -13 -7 -17
-16z m27 -9 c0 -8 -4 -15 -10 -15 -5 0 -10 7 -10 15 0 8 5 15 10 15 6 0 10 -7
10 -15z"/>
<path d="M913 4283 c-17 -6 -17 -23 0 -23 8 0 14 7 14 15 0 8 -1 15 -1 14 -1
0 -7 -3 -13 -6z"/>
<path d="M1865 4240 c-4 -7 -3 -16 3 -22 14 -14 47 -6 47 12 0 18 -40 26 -50
10z"/>
<path d="M4624 4196 c-34 -15 -44 -33 -44 -76 0 -38 41 -70 90 -70 54 0 90 31
90 79 0 24 -7 44 -19 55 -26 23 -80 29 -117 12z"/>
<path d="M6021 4200 c-85 -36 -56 -150 37 -150 57 0 92 31 92 79 0 24 -7 44
-19 55 -23 21 -78 29 -110 16z"/>
<path d="M912 4170 c-10 -16 -10 -20 1 -20 7 0 13 9 14 20 1 11 1 20 0 20 -1
0 -8 -9 -15 -20z"/>
<path d="M944 4179 c-3 -6 -1 -16 5 -22 9 -9 11 -8 6 6 -4 9 -3 17 3 17 6 0
13 -8 15 -17 4 -14 5 -12 6 5 1 23 -22 31 -35 11z"/>
<path d="M6930 3795 l0 -355 75 0 75 0 0 166 0 166 29 29 c35 35 77 38 115 8
l26 -20 0 -175 0 -174 80 0 80 0 0 165 c0 90 -5 187 -11 215 -27 126 -142 174
-263 111 l-56 -30 0 125 0 124 -75 0 -75 0 0 -355z"/>
<path d="M2383 4093 c-24 -9 -14 -33 13 -33 18 0 25 5 22 17 -3 18 -16 24 -35
16z"/>
<path d="M1462 4078 c-19 -19 -14 -28 13 -26 16 2 25 8 23 17 -4 19 -21 24
-36 9z"/>
<path d="M909 4071 c12 -8 12 -12 2 -25 -11 -14 -11 -16 3 -16 10 0 15 4 11 9
-3 5 -1 12 5 16 14 9 2 25 -18 25 -14 0 -15 -2 -3 -9z"/>
<path d="M946 4064 c-7 -19 1 -34 19 -34 18 0 26 25 12 39 -15 15 -24 14 -31
-5z m21 -16 c-3 -8 -6 -5 -6 6 -1 11 2 17 5 13 3 -3 4 -12 1 -19z"/>
<path d="M7580 4015 l0 -65 -45 0 -45 0 0 -70 0 -70 45 0 45 0 0 -185 0 -185
75 0 75 0 0 185 0 185 50 0 50 0 0 70 0 70 -50 0 -50 0 0 65 0 65 -75 0 -75 0
0 -65z"/>
<path d="M1613 4043 c9 -2 23 -2 30 0 6 3 -1 5 -18 5 -16 0 -22 -2 -12 -5z"/>
<path d="M1947 4036 c-3 -8 2 -20 11 -27 14 -11 15 -11 5 0 -6 7 -9 20 -6 27
3 8 3 14 0 14 -3 0 -7 -6 -10 -14z"/>
<path d="M1978 4028 c2 -10 7 -18 11 -18 4 0 7 8 7 18 0 10 -5 19 -12 19 -6 0
-9 -9 -6 -19z"/>
<path d="M2185 4040 c-11 -18 13 -36 31 -25 9 6 16 15 17 20 3 14 -40 18 -48
5z"/>
<path d="M1558 4033 c6 -2 18 -2 25 0 6 3 1 5 -13 5 -14 0 -19 -2 -12 -5z"/>
<path d="M1430 3974 c-36 -31 -72 -63 -80 -72 -14 -14 -13 -15 5 -2 11 8 30
23 42 34 20 17 23 17 29 2 3 -9 11 -16 16 -16 6 0 8 7 5 14 -4 9 2 17 14 21
10 4 20 13 20 21 1 8 2 19 3 26 0 7 12 15 26 19 20 6 21 7 5 8 -11 1 -49 -24
-85 -55z"/>
<path d="M1940 3984 c0 -8 5 -12 10 -9 6 4 8 11 5 16 -9 14 -15 11 -15 -7z"/>
<path d="M1978 3972 c-11 -13 -10 -15 5 -9 9 3 17 2 17 -3 0 -15 17 -12 23 4
8 20 -30 27 -45 8z"/>
<path d="M5137 3950 c-16 -5 -44 -20 -63 -35 l-34 -26 0 30 0 31 -75 0 -75 0
0 -255 0 -255 80 0 80 0 0 164 c0 90 3 172 6 181 8 21 56 45 89 45 14 0 37
-11 50 -25 25 -24 25 -27 25 -195 l0 -170 75 0 75 0 0 193 c0 180 -1 196 -22
237 -37 73 -125 106 -211 80z"/>
<path d="M5590 3945 c-25 -8 -61 -30 -80 -50 -32 -33 -35 -41 -35 -95 0 -55 3
-62 36 -96 28 -27 60 -44 130 -68 85 -28 94 -33 94 -56 0 -49 -89 -52 -157 -6
l-35 23 -49 -42 -49 -43 50 -31 c62 -39 103 -51 181 -51 88 0 159 38 192 102
49 94 2 170 -129 208 -89 27 -119 44 -119 70 0 21 27 40 57 40 10 0 42 -12 72
-26 l55 -25 40 41 c40 40 41 41 21 57 -67 52 -194 75 -275 48z"/>
<path d="M6406 3945 c-47 -16 -100 -66 -129 -120 -29 -53 -31 -203 -4 -252 29
-54 87 -102 140 -118 73 -22 107 -19 172 14 l57 29 -5 -39 c-7 -50 -31 -87
-65 -100 -38 -15 -150 -7 -191 14 -19 9 -35 16 -36 15 -2 -2 -15 -27 -29 -56
l-27 -53 58 -27 c51 -23 70 -27 163 -27 90 0 112 3 153 24 26 12 59 38 73 57
50 64 53 89 54 377 l0 267 -69 0 c-66 0 -69 -1 -75 -26 -6 -24 -8 -25 -24 -10
-25 22 -98 46 -141 46 -20 -1 -53 -7 -75 -15z m169 -129 c42 -18 65 -61 65
-122 0 -88 -63 -145 -144 -130 -82 16 -123 132 -73 207 38 57 87 72 152 45z"/>
<path d="M8026 3946 c-87 -32 -133 -95 -121 -166 12 -73 53 -106 179 -145 76
-23 98 -44 80 -72 -17 -26 -102 -22 -147 6 -19 11 -38 21 -43 21 -5 0 -26 -17
-47 -36 l-39 -36 23 -24 c32 -34 119 -64 188 -64 131 0 221 67 221 165 0 79
-37 111 -178 156 -73 23 -97 44 -86 73 14 36 88 32 147 -9 l36 -24 36 40 c20
22 35 46 33 52 -2 7 -29 25 -61 41 -69 35 -162 44 -221 22z"/>
<path d="M935 3940 c-8 -14 3 -30 21 -30 8 0 14 9 13 23 -1 16 -2 18 -6 5 -2
-10 -9 -18 -15 -18 -5 0 -8 7 -4 15 6 17 0 20 -9 5z"/>
<path d="M4597 3943 c-4 -3 -7 -118 -7 -255 l0 -248 80 0 80 0 0 255 0 255
-73 0 c-41 0 -77 -3 -80 -7z"/>
<path d="M5990 3695 l0 -255 75 0 75 0 0 255 0 255 -75 0 -75 0 0 -255z"/>
<path d="M2384 3933 c4 -8 2 -13 -5 -13 -10 0 -10 -3 -1 -12 8 -8 15 -9 22 -2
8 8 6 15 -6 25 -12 9 -15 10 -10 2z"/>
<path d="M2667 3934 c-16 -16 -6 -34 19 -34 19 0 25 5 22 17 -3 19 -29 29 -41
17z"/>
<path d="M1105 3890 c-11 -18 13 -36 31 -25 9 6 16 15 17 20 3 14 -40 18 -48
5z"/>
<path d="M1235 3866 c-83 -26 -72 -36 40 -36 68 0 73 1 68 20 -3 11 -10 20
-15 20 -5 0 -6 5 -3 10 9 14 -10 11 -90 -14z"/>
<path d="M2773 3853 c9 -2 23 -2 30 0 6 3 -1 5 -18 5 -16 0 -22 -2 -12 -5z"/>
<path d="M2830 3840 c13 -9 179 -15 169 -6 -2 2 -44 6 -94 10 -62 4 -85 3 -75
-4z"/>
<path d="M934 3829 c-3 -6 0 -17 8 -25 13 -13 16 -13 27 0 7 8 10 20 6 26 -8
13 -32 13 -41 -1z m26 -15 c0 -8 -4 -12 -10 -9 -5 3 -10 10 -10 16 0 5 5 9 10
9 6 0 10 -7 10 -16z"/>
<path d="M1138 3833 c7 -3 16 -2 19 1 4 3 -2 6 -13 5 -11 0 -14 -3 -6 -6z"/>
<path d="M1101 3754 c0 -11 3 -14 6 -6 3 7 2 16 -1 19 -3 4 -6 -2 -5 -13z"/>
<path d="M1491 3754 c0 -11 3 -14 6 -6 3 7 2 16 -1 19 -3 4 -6 -2 -5 -13z"/>
<path d="M1891 3754 c0 -11 3 -14 6 -6 3 7 2 16 -1 19 -3 4 -6 -2 -5 -13z"/>
<path d="M2291 3754 c0 -11 3 -14 6 -6 3 7 2 16 -1 19 -3 4 -6 -2 -5 -13z"/>
<path d="M2691 3754 c0 -11 3 -14 6 -6 3 7 2 16 -1 19 -3 4 -6 -2 -5 -13z"/>
<path d="M3086 3755 c-3 -8 -1 -15 4 -15 6 0 10 7 10 15 0 8 -2 15 -4 15 -2 0
-6 -7 -10 -15z"/>
<path d="M3500 3755 c0 -8 5 -15 10 -15 6 0 10 7 10 15 0 8 -4 15 -10 15 -5 0
-10 -7 -10 -15z"/>
<path d="M1083 3664 c-8 -21 13 -42 28 -27 13 13 5 43 -11 43 -6 0 -13 -7 -17
-16z m27 -9 c0 -8 -4 -15 -10 -15 -5 0 -10 7 -10 15 0 8 5 15 10 15 6 0 10 -7
10 -15z"/>
<path d="M1137 3674 c-4 -4 -7 -16 -7 -26 0 -20 25 -25 36 -7 8 13 -19 43 -29
33z m18 -13 c3 -5 1 -12 -5 -16 -5 -3 -10 1 -10 9 0 18 6 21 15 7z"/>
<path d="M1433 3664 c-9 -23 13 -40 32 -24 10 8 15 9 15 1 0 -6 7 -11 15 -11
8 0 15 8 15 18 0 25 -11 34 -26 21 -8 -7 -14 -7 -19 1 -9 15 -25 12 -32 -6z
m27 -9 c0 -8 -4 -15 -10 -15 -5 0 -10 7 -10 15 0 8 5 15 10 15 6 0 10 -7 10
-15z m37 -7 c-3 -8 -6 -5 -6 6 -1 11 2 17 5 13 3 -3 4 -12 1 -19z"/>
<path d="M1530 3666 c-13 -17 -6 -36 15 -36 19 0 26 27 11 39 -10 8 -17 7 -26
-3z m16 -23 c-10 -10 -19 5 -10 18 6 11 8 11 12 0 2 -7 1 -15 -2 -18z"/>
<path d="M1832 3667 c-6 -7 -8 -18 -4 -24 9 -15 61 -12 55 3 -2 7 0 15 6 19 6
3 11 -2 11 -12 0 -13 9 -19 30 -20 23 -2 30 2 30 16 0 25 -11 33 -27 20 -9 -8
-17 -8 -26 0 -10 8 -17 7 -25 -1 -8 -8 -15 -8 -25 1 -11 9 -17 8 -25 -2z m28
-18 c0 -5 -4 -9 -10 -9 -5 0 -10 7 -10 16 0 8 5 12 10 9 6 -3 10 -10 10 -16z
m86 -6 c-10 -10 -19 5 -10 18 6 11 8 11 12 0 2 -7 1 -15 -2 -18z"/>
<path d="M2227 3674 c-16 -16 -7 -44 14 -44 15 0 20 5 17 22 -3 22 -19 33 -31
22z m23 -19 c0 -8 -4 -15 -10 -15 -5 0 -10 7 -10 15 0 8 5 15 10 15 6 0 10 -7
10 -15z"/>
<path d="M2276 3673 c-3 -3 -6 -14 -6 -23 0 -13 9 -17 40 -17 45 0 58 10 39
33 -8 10 -16 11 -22 5 -6 -6 -17 -7 -27 -1 -10 5 -20 6 -24 3z m24 -24 c0 -5
-4 -9 -10 -9 -5 0 -10 7 -10 16 0 8 5 12 10 9 6 -3 10 -10 10 -16z m36 -6
c-10 -10 -19 5 -10 18 6 11 8 11 12 0 2 -7 1 -15 -2 -18z"/>
<path d="M2630 3666 c-18 -23 -5 -33 40 -33 31 0 40 4 40 17 0 24 -11 32 -27
19 -9 -9 -17 -8 -27 0 -10 9 -16 8 -26 -3z m30 -17 c0 -5 -4 -9 -10 -9 -5 0
-10 7 -10 16 0 8 5 12 10 9 6 -3 10 -10 10 -16z m36 -6 c-10 -10 -19 5 -10 18
6 11 8 11 12 0 2 -7 1 -15 -2 -18z"/>
<path d="M2727 3674 c-16 -16 -7 -44 14 -44 15 0 20 5 17 22 -3 22 -19 33 -31
22z m23 -25 c0 -5 -4 -9 -10 -9 -5 0 -10 7 -10 16 0 8 5 12 10 9 6 -3 10 -10
10 -16z"/>
<path d="M3075 3670 c-4 -6 -11 -8 -16 -5 -5 4 -9 -1 -9 -9 0 -9 -5 -16 -11
-16 -6 0 -9 7 -5 15 3 8 1 15 -4 15 -6 0 -10 -9 -10 -20 0 -17 6 -19 42 -17
30 1 43 7 44 17 0 9 -1 10 -3 3 -7 -21 -26 -14 -20 7 6 22 2 26 -8 10z"/>
<path d="M3126 3673 c-3 -4 -6 -15 -6 -25 0 -24 33 -21 38 3 3 17 -21 33 -32
22z m24 -24 c0 -5 -4 -9 -10 -9 -5 0 -10 7 -10 16 0 8 5 12 10 9 6 -3 10 -10
10 -16z"/>
<path d="M1097 3513 c-4 -3 -7 -24 -7 -45 l0 -38 -45 0 -45 0 -3 -667 c-2
-492 -7 -682 -16 -722 -11 -46 -10 -65 3 -124 9 -38 16 -114 16 -168 l0 -99
-192 -3 c-136 -2 -98 -3 124 -5 l317 -2 4 -97 3 -98 2 98 2 97 345 0 344 0 4
-97 3 -98 2 97 2 98 183 3 182 2 -183 3 -183 2 7 198 c4 108 11 203 17 210 5
7 46 45 91 84 72 64 75 66 28 17 -29 -30 -49 -59 -45 -64 5 -4 2 -5 -4 -1 -9
5 -11 2 -7 -8 5 -14 31 -22 58 -17 4 1 14 -4 22 -10 11 -9 14 -8 14 2 1 8 7 1
14 -16 8 -17 10 -35 5 -41 -11 -14 -1 -24 17 -17 8 3 14 -1 14 -10 0 -8 6 -17
13 -20 8 -3 -2 -19 -26 -43 -29 -30 -40 -36 -46 -25 -6 9 -11 10 -15 2 -4 -6
-2 -11 5 -11 7 0 9 -3 5 -7 -4 -5 -14 1 -22 11 -7 11 -17 17 -20 13 -4 -4 -12
-3 -18 2 -6 4 -21 11 -33 13 -18 5 -21 2 -21 -23 1 -15 -7 -40 -17 -55 l-17
-27 38 7 c176 33 304 215 304 431 0 178 -89 339 -223 404 -84 41 -219 38 -272
-4 -17 -14 -15 -14 14 0 27 14 35 14 42 4 6 -10 10 -10 23 0 10 9 20 10 29 4
6 -5 21 -9 32 -9 11 1 23 -3 26 -8 4 -4 18 0 33 9 17 11 26 13 26 6 0 -7 5 -9
10 -6 17 11 62 -24 56 -42 -5 -11 -2 -14 11 -9 15 5 14 3 -3 -12 -11 -9 -18
-24 -16 -32 4 -12 0 -11 -15 3 -21 18 -38 23 -29 8 4 -5 0 -12 -6 -14 -10 -4
-10 -6 0 -6 6 -1 12 -8 12 -17 0 -9 -5 -12 -12 -8 -7 4 -8 3 -4 -4 4 -7 16
-12 27 -12 10 0 19 -5 19 -11 0 -8 -17 -10 -55 -5 l-55 6 4 -27 c2 -16 1 -22
-1 -15 -2 6 -13 12 -24 12 -10 0 -19 7 -19 15 0 17 -52 11 -87 -11 -13 -8 -23
-10 -23 -4 0 5 -9 10 -20 10 -15 0 -20 -7 -20 -27 l0 -27 -17 23 c-16 23 -17
23 -24 5 -4 -10 -8 -25 -8 -31 -1 -20 17 -15 22 5 3 9 5 -13 6 -50 1 -45 -3
-68 -11 -71 -7 -3 -3 -6 10 -6 19 -1 22 4 22 34 0 19 5 35 10 35 6 0 10 -7 10
-15 0 -7 7 -18 15 -22 11 -7 14 -18 9 -41 -6 -31 -7 -32 -25 -16 -18 16 -19
16 -19 1 0 -10 -5 -17 -12 -17 -6 0 -3 -10 9 -22 23 -27 20 -60 -4 -51 -13 5
-15 2 -10 -17 3 -13 2 -29 -4 -36 -7 -8 0 -20 22 -38 28 -24 34 -25 48 -13 9
8 21 12 28 10 26 -10 48 49 54 147 4 82 6 68 10 -97 l4 -192 -35 32 c-92 84
-149 141 -145 147 2 3 -5 7 -16 7 -10 1 -19 -2 -19 -6 0 -4 47 -52 105 -105
l105 -98 0 -51 c-1 -50 -1 -51 -15 -27 -7 14 -10 29 -6 35 18 23 4 49 -53 97
-34 29 -55 46 -48 38 16 -18 15 -30 -2 -30 -8 0 -13 9 -11 23 2 28 -42 77 -64
70 -14 -4 -14 -3 -1 6 9 7 10 11 3 11 -6 0 -15 -5 -18 -10 -4 -6 -11 -7 -17
-4 -7 5 -8 2 -3 -6 5 -9 2 -10 -13 -6 -13 5 -22 1 -26 -11 -6 -15 -8 -15 -16
-3 -5 8 -7 23 -4 34 4 13 3 16 -6 11 -8 -5 -11 -3 -8 6 3 8 10 13 16 12 18 -4
34 36 27 67 -8 36 9 47 29 18 13 -18 16 -19 16 -5 0 9 -4 17 -10 17 -5 0 -10
4 -10 10 0 5 7 6 17 3 11 -4 14 -3 9 6 -4 7 -15 11 -24 9 -21 -4 -52 21 -52
41 0 8 -7 22 -16 32 -12 14 -14 26 -7 60 8 39 12 43 38 45 61 3 62 3 45 14
-13 9 -7 14 12 11 14 -2 20 67 8 89 -10 19 -8 26 22 57 24 26 27 32 11 24 -55
-28 -131 -158 -152 -259 -34 -163 12 -332 121 -442 l48 -49 0 -105 0 -106
-260 0 c-224 0 -260 2 -260 15 0 8 7 15 16 15 49 0 103 28 156 80 46 47 60 68
77 124 25 81 26 122 6 201 -27 100 -69 154 -160 201 -43 23 -58 26 -120 22
-82 -5 -131 -31 -186 -98 l-35 -41 -2 625 -3 626 386 0 385 0 0 -395 c0 -257
4 -395 10 -395 6 0 10 140 10 399 l0 400 -47 3 -48 3 -3 43 -3 42 -298 0
c-164 0 -301 -3 -304 -7z m593 -48 l0 -35 -290 0 -290 0 0 38 0 37 290 -3 290
-3 0 -34z m580 -1018 c0 -4 -4 -5 -10 -2 -5 3 -10 2 -10 -4 0 -6 -7 -8 -15 -5
-19 8 -19 0 0 -20 13 -13 13 -15 -4 -21 -13 -4 -18 -11 -14 -22 5 -13 2 -15
-11 -10 -14 6 -17 3 -12 -9 3 -8 6 -20 6 -25 0 -5 6 -9 14 -9 8 0 13 -8 12
-17 0 -10 5 -17 12 -15 6 1 12 -7 12 -18 0 -12 7 -20 18 -20 29 0 44 -37 37
-92 -6 -43 -9 -47 -23 -36 -10 8 -13 9 -9 1 4 -6 2 -15 -4 -19 -7 -4 -9 -3 -6
2 3 6 2 16 -4 24 -7 13 -9 13 -9 -1 0 -9 -9 -24 -20 -34 -17 -15 -23 -16 -33
-6 -7 8 -8 15 -2 17 25 10 39 24 31 31 -5 4 -11 2 -13 -4 -3 -7 -9 -13 -14
-13 -4 0 -6 6 -3 14 3 9 -5 21 -20 31 -29 19 -29 44 -1 75 10 11 15 23 11 27
-4 4 -54 -40 -111 -97 l-105 -105 0 127 c0 92 -3 128 -12 131 -8 2 -9 8 -4 13
5 5 11 4 13 -4 3 -6 8 -10 11 -8 4 2 5 -23 4 -55 -3 -50 0 -66 20 -94 l23 -34
37 36 c21 21 38 41 38 45 0 14 -64 68 -76 63 -17 -5 -5 33 12 39 21 8 17 36
-6 36 -21 0 -27 15 -10 25 6 3 10 15 10 26 0 23 41 27 60 4 7 -8 21 -15 31
-15 11 0 19 -5 19 -11 0 -6 13 0 28 13 25 20 27 24 13 35 -19 14 -17 17 29 36
31 13 36 13 48 -1 6 -9 12 -20 12 -25z m-303 -37 c24 -18 24 -20 6 -20 -11 0
-26 6 -33 14 -6 8 -24 17 -38 19 -24 3 -23 4 6 6 21 0 44 -7 59 -19z m-97 -61
c0 -5 -7 -9 -15 -9 -8 0 -15 7 -15 15 0 9 6 12 15 9 8 -4 15 -10 15 -15z
m-546 -61 c64 -19 150 -110 171 -182 50 -172 -23 -353 -162 -400 -76 -26 -73
-31 -73 117 l0 132 71 59 c38 32 68 61 65 64 -3 2 -32 -18 -64 -47 -33 -28
-62 -51 -65 -51 -4 0 -8 33 -10 73 -1 39 -4 5 -5 -78 l-3 -150 -19 24 c-49 57
-121 133 -125 129 -2 -2 29 -41 70 -87 l75 -84 0 -58 c0 -55 -2 -59 -22 -59
-36 0 -120 44 -155 81 -56 60 -78 122 -78 224 0 78 4 97 28 147 31 63 99 129
149 145 46 15 103 15 152 1z m850 -192 c-5 -13 -48 -15 -60 -3 -5 4 -3 12 4
16 19 11 61 1 56 -13z m-487 -61 c-4 -8 -12 -15 -19 -15 -9 0 -8 3 2 10 8 5
11 10 7 10 -5 0 -5 5 -2 11 10 15 19 3 12 -16z m138 -195 c3 -5 32 -14 65 -21
l60 -12 0 -78 0 -79 -75 0 -75 0 0 100 c0 90 8 118 25 90z m-694 -130 c21 -11
55 -24 76 -28 20 -4 38 -13 41 -20 3 -9 -25 -12 -111 -12 l-116 0 -3 85 -3 85
39 -46 c21 -24 56 -54 77 -64z"/>
<path d="M4037 3293 c-3 -5 5 -8 18 -8 13 0 21 3 18 8 -2 4 -10 7 -18 7 -8 0
-16 -3 -18 -7z"/>
<path d="M8009 3259 l-24 -20 30 17 c39 24 40 24 28 24 -6 0 -21 -9 -34 -21z"/>
<path d="M1303 3220 c0 -25 2 -35 4 -22 2 12 2 32 0 45 -2 12 -4 2 -4 -23z"/>
<path d="M1614 3075 c0 -60 1 -84 3 -52 2 32 2 81 0 110 -2 29 -3 3 -3 -58z"/>
<path d="M6499 3119 l-24 -20 28 17 c25 15 29 15 55 0 l27 -17 -24 20 c-13 12
-27 21 -31 21 -4 0 -18 -9 -31 -21z"/>
<path d="M1614 2705 c0 -110 2 -156 3 -103 2 53 2 143 0 200 -1 57 -3 13 -3
-97z"/>
<path d="M7900 2171 l0 -520 -22 -4 c-13 -2 167 -5 400 -6 l422 -1 2 -72 2
-73 5 70 6 70 165 5 165 6 -167 2 -168 2 0 30 c0 25 4 30 35 36 47 8 109 55
140 104 100 159 49 408 -98 479 -71 35 -149 23 -206 -30 l-21 -20 0 181 0 180
-120 0 -120 0 0 40 0 40 -210 0 -210 0 0 -519z m408 466 l3 -37 115 0 114 0 0
-185 c0 -181 -1 -187 -26 -238 -19 -36 -29 -75 -33 -127 l-6 -75 -45 -6 -45
-6 47 -1 c44 -2 47 -4 53 -34 4 -18 18 -53 31 -77 20 -35 24 -58 24 -122 l0
-79 -315 0 -315 0 0 510 0 510 188 2 c103 2 192 3 197 2 6 0 11 -17 13 -37z
m362 -349 c-19 -5 -39 -13 -44 -18 -11 -11 20 -44 33 -36 5 4 21 2 35 -4 21
-8 30 -5 55 20 l29 30 -26 6 c-43 9 -49 12 -24 13 28 1 91 -30 114 -56 64 -70
95 -230 64 -334 -16 -56 -68 -139 -87 -139 -5 0 -7 5 -3 12 4 7 3 8 -5 4 -6
-4 -9 -11 -6 -16 6 -10 -46 -40 -70 -40 -12 0 -15 13 -15 67 l0 67 68 62 c80
75 71 86 -11 13 l-57 -51 0 86 c0 51 -4 86 -10 86 -6 0 -10 -33 -10 -80 l0
-80 -65 67 c-84 89 -84 68 0 -24 l65 -71 0 -71 c0 -81 -5 -84 -70 -51 -112 57
-166 240 -116 389 29 86 110 161 171 160 11 -1 4 -5 -15 -11z m-10 -568 c35
-9 40 -14 40 -40 l0 -30 -70 0 -70 0 0 66 0 66 30 -26 c17 -14 49 -30 70 -36z"/>
<path d="M8393 2490 c0 -25 2 -35 4 -22 2 12 2 32 0 45 -2 12 -4 2 -4 -23z"/>
<path d="M8142 2365 c0 -16 2 -22 5 -12 2 9 2 23 0 30 -3 6 -5 -1 -5 -18z"/>
<path d="M8482 2355 c0 -16 2 -22 5 -12 2 9 2 23 0 30 -3 6 -5 -1 -5 -18z"/>
<path d="M8390 2206 c0 -19 3 -37 8 -40 4 -2 6 13 4 35 -5 48 -12 51 -12 5z"/>
<path d="M8482 2190 c0 -14 2 -19 5 -12 2 6 2 18 0 25 -3 6 -5 1 -5 -13z"/>
<path d="M8391 2064 c0 -11 3 -14 6 -6 3 7 2 16 -1 19 -3 4 -6 -2 -5 -13z"/>
<path d="M7988 1963 c18 -2 45 -2 60 0 15 2 0 4 -33 4 -33 0 -45 -2 -27 -4z"/>
<path d="M8183 1963 c26 -2 68 -2 95 0 26 2 4 3 -48 3 -52 0 -74 -1 -47 -3z"/>
<path d="M8827 2213 c-3 -5 -5 -34 -6 -66 0 -52 1 -56 15 -42 8 8 13 19 9 25
-3 5 0 7 9 4 20 -8 25 25 9 59 -13 27 -27 34 -36 20z"/>
<path d="M8521 2128 c-15 -43 -14 -58 6 -81 17 -18 17 -19 0 -28 -18 -10 -22
-53 -11 -97 6 -22 8 -22 29 15 12 21 27 37 34 35 7 -1 3 9 -8 24 -26 33 -9 52
25 29 38 -24 93 10 64 39 -8 8 -9 6 -4 -7 6 -16 2 -16 -40 4 -25 13 -44 25
-42 27 3 2 0 16 -6 32 -14 41 -34 45 -47 8z"/>
<path d="M8766 2152 c-8 -13 -11 -80 -4 -88 4 -3 15 -1 25 6 17 11 17 11 0 6
-11 -4 -16 -2 -11 5 9 15 11 69 3 75 -4 2 -10 0 -13 -4z"/>
<path d="M8731 1985 l-2 -66 25 17 c14 9 23 20 20 25 -3 5 -1 8 4 7 6 -2 10 2
10 7 0 6 -4 9 -10 7 -5 -1 -7 2 -3 8 3 5 -5 21 -18 36 l-24 25 -2 -66z"/>
<path d="M8885 2020 c-4 -6 -2 -17 4 -24 6 -7 8 -16 4 -19 -3 -4 -1 -7 5 -7 7
0 12 14 12 30 0 30 -13 40 -25 20z"/>
<path d="M8777 1903 c-8 -7 5 -43 15 -43 6 0 8 6 5 14 -4 9 1 16 11 18 13 3
12 5 -5 10 -12 3 -24 4 -26 1z"/>
<path d="M8628 1874 c-4 -3 -14 -7 -25 -9 -10 -2 -19 -4 -20 -5 -2 -2 -9 -3
-15 -4 -20 -3 -10 -28 25 -64 28 -29 32 -31 39 -15 3 10 7 30 7 46 1 17 6 27
16 27 20 0 19 16 -1 24 -19 7 -19 7 -26 0z"/>
<path d="M8806 1863 c-2 -10 -7 -28 -10 -39 -5 -16 -1 -23 13 -27 20 -5 40 11
60 50 9 18 8 20 -9 16 -11 -3 -20 0 -20 6 0 18 -28 13 -34 -6z"/>
<path d="M4040 2640 l0 -30 -735 0 -735 0 0 -147 0 -146 -60 -78 c-33 -42 -60
-80 -60 -83 0 -3 27 -6 60 -6 l60 0 0 -325 0 -325 -45 0 c-25 0 -45 -4 -45
-10 0 -7 848 -10 2525 -10 1799 0 2525 3 2525 11 0 6 -15 9 -37 7 l-38 -3 -3
328 -3 327 61 0 c39 0 60 4 60 12 0 6 -27 44 -60 84 l-60 72 0 146 0 146 -660
0 -660 0 0 30 0 30 -1045 0 -1045 0 0 -30z m2078 -565 l2 -575 -52 0 c-29 0
-77 -3 -105 -6 l-53 -7 0 336 0 336 41 3 40 3 -40 56 -40 57 -3 123 -3 124
-817 3 -818 2 0 -123 0 -124 -40 -57 c-22 -31 -40 -59 -40 -61 0 -3 18 -5 40
-5 l40 0 -2 -332 -3 -333 -105 0 -105 0 -3 570 c-1 314 0 575 2 580 2 7 353 9
1032 8 l1029 -3 3 -575z m-2078 380 l0 -145 -724 0 c-399 0 -726 3 -728 8 -2
4 -2 69 0 145 l3 137 725 0 724 0 0 -145z m3400 0 l0 -145 -655 0 -655 0 0
145 0 145 655 0 655 0 0 -145z m-1550 -55 l0 -110 -805 0 -805 0 0 110 0 110
805 0 805 0 0 -110z m-1855 -165 l1 -65 -779 0 -779 0 28 38 c15 20 37 49 48
64 l21 27 730 0 730 1 0 -65z m3446 23 c19 -23 42 -53 52 -65 l18 -23 -708 0
-708 0 3 65 4 65 652 0 653 0 34 -42z m-3076 12 l30 -8 -37 -1 c-31 -1 -35 -4
-31 -21 3 -11 0 -27 -7 -35 -11 -13 2 -15 105 -15 93 0 116 3 112 13 -3 7 4
19 14 25 33 21 21 32 -38 32 -31 0 -53 3 -50 6 9 10 958 15 1037 7 61 -7 62
-8 25 -13 -28 -3 -40 -10 -39 -21 1 -9 -4 -16 -10 -17 -6 -1 -33 -8 -61 -16
-48 -14 -40 -14 168 -15 l217 0 0 24 c0 14 0 28 0 33 1 4 -14 10 -32 13 -31 6
-29 7 15 9 26 2 52 3 59 4 6 1 27 -20 46 -46 l34 -48 -872 0 c-699 0 -869 2
-863 13 54 85 56 87 103 86 25 -1 59 -5 75 -9z m255 -160 l0 -49 -132 -3 -133
-3 -2 -280 -2 -280 -55 -3 -56 -3 0 336 0 335 190 0 190 0 0 -50z m50 -280 c0
-287 -2 -330 -15 -330 -13 0 -15 43 -15 330 0 287 2 330 15 330 13 0 15 -43
15 -330z m731 326 c2 -3 3 -25 1 -50 l-4 -46 -354 0 -354 0 0 50 0 50 353 0
c195 0 356 -2 358 -4z m56 -68 c-4 -40 -7 -189 -7 -330 0 -223 -2 -258 -15
-258 -13 0 -15 43 -15 330 l0 330 21 0 c21 0 21 -3 16 -72z m393 -260 l0 -333
-55 0 -55 0 0 283 0 282 -135 0 -135 0 0 50 0 50 190 0 190 0 0 -332z m-2380
132 l0 -190 -84 0 c-47 0 -88 5 -91 10 -3 6 -10 10 -15 10 -4 0 1 -17 11 -37
28 -55 25 -63 -25 -63 l-44 0 5 40 6 40 -136 0 c-80 0 -138 4 -142 10 -3 6
-10 10 -15 10 -6 0 -1 -15 10 -32 33 -54 27 -68 -25 -68 l-45 0 0 40 0 40
-135 0 c-83 0 -135 4 -135 10 0 6 -7 10 -15 10 -13 0 -12 -5 4 -27 11 -16 22
-38 26 -50 6 -21 3 -23 -34 -23 l-41 0 0 230 0 230 460 0 460 0 0 -190z m530
-40 l0 -230 -220 0 -220 0 6 40 7 40 -48 0 -47 0 3 190 4 190 258 0 257 0 0
-230z m2600 0 l0 -230 -90 0 c-83 0 -90 1 -90 20 0 19 -7 20 -107 22 -152 3
-154 3 -190 24 l-33 19 0 188 0 187 255 0 255 0 0 -230z m800 0 l0 -230 -76 0
c-82 0 -85 2 -59 63 7 16 -2 17 -114 17 -99 0 -121 -3 -121 -14 0 -8 5 -18 10
-21 6 -3 10 -14 10 -23 0 -13 -11 -18 -46 -20 l-47 -2 6 40 5 40 -119 0 c-97
0 -119 -3 -119 -14 0 -8 5 -18 10 -21 6 -3 10 -15 10 -26 0 -17 -7 -19 -65
-19 l-65 0 0 230 0 230 390 0 390 0 0 -230z m-2778 -1 c2 -72 1 -133 -1 -135
-2 -2 -60 -4 -128 -4 l-123 0 0 135 0 135 124 0 125 0 3 -131z m143 -4 l0
-130 -37 -3 -38 -3 0 136 0 136 38 -3 37 -3 0 -130z m273 80 c2 -27 1 -87 -3
-132 l-7 -83 -124 0 -124 0 0 135 0 136 128 -3 127 -3 3 -50z m272 -80 l0
-135 -130 0 -130 0 0 135 0 135 130 0 130 0 0 -135z m95 0 l0 -130 -40 0 -40
0 -3 133 -3 133 43 -3 43 -3 0 -130z m315 0 l0 -135 -125 0 -125 0 0 135 0
135 125 0 125 0 0 -135z m-1100 -275 c0 -71 0 -133 0 -137 0 -5 -56 -9 -125
-11 l-125 -3 0 141 0 140 125 0 125 0 0 -130z m147 -7 l-2 -138 -37 -3 -38 -3
0 140 0 141 39 0 39 0 -1 -137z m266 2 l-2 -136 -125 -2 -126 -2 0 138 0 137
128 0 127 0 -2 -135z m277 0 l0 -135 -99 0 c-54 0 -113 -3 -130 -6 l-31 -6 0
141 0 141 130 0 130 0 0 -135z m90 -2 l0 -138 -37 1 -38 1 -3 137 -3 136 41 0
40 0 0 -137z m320 0 l0 -138 -122 2 -123 2 -3 135 -3 136 126 0 125 0 0 -137z
m-3044 105 c-13 -22 -32 -23 -39 -4 -6 15 4 22 33 22 14 0 15 -4 6 -18z m62
15 c-10 -2 -18 -8 -18 -13 0 -5 8 -11 18 -13 13 -4 11 -5 -5 -6 -17 -1 -23 5
-23 19 0 14 6 20 23 19 16 -1 18 -2 5 -6z m72 -13 c0 -13 -7 -20 -20 -20 -13
0 -20 7 -20 20 0 13 7 20 20 20 13 0 20 -7 20 -20z m50 0 c0 -11 -7 -20 -15
-20 -8 0 -15 9 -15 20 0 11 7 20 15 20 8 0 15 -9 15 -20z m170 5 c0 -8 -9 -15
-20 -15 -11 0 -20 7 -20 15 0 8 9 15 20 15 11 0 20 -7 20 -15z m60 5 c0 -5 -6
-7 -14 -4 -8 3 -16 -2 -19 -13 -4 -14 -5 -14 -6 5 -1 16 5 22 19 22 11 0 20
-4 20 -10z m60 -10 c0 -13 -7 -20 -20 -20 -13 0 -20 7 -20 20 0 13 7 20 20 20
13 0 20 -7 20 -20z m59 -2 c-1 -16 -3 -18 -6 -6 -2 9 -12 19 -21 21 -12 3 -10
5 6 6 17 1 22 -4 21 -21z m161 2 c0 -15 -7 -20 -25 -20 -24 0 -34 18 -18 33
15 15 43 7 43 -13z m50 0 c0 -11 -6 -20 -14 -20 -7 0 -16 9 -19 20 -4 15 0 20
14 20 12 0 19 -7 19 -20z m73 1 c-3 -13 -11 -17 -24 -14 -28 8 -24 33 5 33 19
0 23 -4 19 -19z m57 1 c0 -11 -7 -18 -20 -18 -13 0 -20 7 -20 18 0 11 7 18 20
18 13 0 20 -7 20 -18z m2590 -22 c15 -27 13 -30 -20 -30 -28 0 -30 3 -30 35 0
32 2 35 20 25 11 -6 24 -19 30 -30z m802 20 c-17 -16 -21 -28 -16 -55 3 -19 1
-35 -4 -35 -14 0 -20 43 -11 68 6 16 5 22 -6 22 -11 0 -16 -13 -17 -47 l-2
-48 -3 48 -4 47 -65 0 c-36 0 -64 4 -64 10 0 6 42 10 107 10 l107 0 -22 -20z
m313 10 c-3 -5 -44 -10 -91 -10 -49 0 -84 -4 -84 -10 0 -5 -5 -10 -12 -10 -6
0 -8 3 -5 7 4 3 -1 12 -11 19 -14 11 0 13 96 14 73 0 111 -4 107 -10z m-4070
-20 c3 -5 1 -10 -4 -10 -6 0 -11 5 -11 10 0 6 2 10 4 10 3 0 8 -4 11 -10z
m3595 -10 c0 -5 -2 -10 -4 -10 -3 0 -8 5 -11 10 -3 6 -1 10 4 10 6 0 11 -4 11
-10z m50 6 c0 -11 -19 -15 -25 -6 -3 5 1 10 9 10 9 0 16 -2 16 -4z m30 -11 c0
-8 0 -18 1 -22 0 -4 -4 -9 -9 -11 -6 -2 -9 8 -8 23 1 26 16 36 16 10z m260 0
c0 -8 0 -17 0 -20 0 -16 -14 -6 -16 13 -2 12 1 22 6 22 6 0 10 -7 10 -15z m40
-12 c0 -29 -12 -24 -17 7 -2 11 2 20 7 20 6 0 10 -12 10 -27z m30 -13 c0 -22
-4 -40 -8 -40 -4 0 -7 12 -6 28 1 15 3 33 3 40 1 6 3 12 6 12 3 0 5 -18 5 -40z
m31 33 c4 -46 2 -73 -6 -73 -5 0 -10 18 -10 40 -1 22 3 40 7 40 4 0 8 -3 9 -7z
m-1001 -18 c0 -9 -6 -12 -15 -9 -8 4 -15 10 -15 15 0 5 7 9 15 9 8 0 15 -7 15
-15z m30 -1 c0 -8 -4 -12 -10 -9 -5 3 -10 10 -10 16 0 5 5 9 10 9 6 0 10 -7
10 -16z m40 1 c0 -8 -4 -15 -10 -15 -5 0 -10 7 -10 15 0 8 5 15 10 15 6 0 10
-7 10 -15z m40 0 c0 -8 -4 -15 -10 -15 -5 0 -10 7 -10 15 0 8 5 15 10 15 6 0
10 -7 10 -15z m70 6 c0 -6 -4 -13 -10 -16 -5 -3 -10 1 -10 9 0 9 5 16 10 16 6
0 10 -4 10 -9z m-3600 -11 c-19 -13 -30 -13 -30 0 0 6 10 10 23 10 18 0 19 -2
7 -10z m60 2 c0 -5 -7 -9 -15 -9 -8 0 -15 4 -15 9 0 4 7 8 15 8 8 0 15 -4 15
-8z m157 -17 c-10 -21 -13 -22 -19 -7 -11 27 -9 32 11 32 17 0 18 -3 8 -25z
m53 21 c0 -3 -4 -8 -10 -11 -5 -3 -10 -1 -10 4 0 6 5 11 10 11 6 0 10 -2 10
-4z m66 -26 c8 0 14 -4 14 -8 0 -4 -9 -8 -20 -8 -15 0 -20 7 -19 26 1 17 3 19
6 8 2 -10 11 -18 19 -18z m234 -1 c0 -12 -7 -19 -20 -19 -14 0 -20 7 -20 24 0
19 4 23 20 19 11 -3 20 -14 20 -24z m65 20 c3 -5 0 -6 -8 -3 -8 3 -18 1 -22
-5 -3 -6 1 -11 9 -11 9 0 16 -4 16 -10 0 -5 -9 -10 -20 -10 -28 0 -28 45 0 47
11 1 22 -2 25 -8z m35 7 c0 -3 -4 -8 -10 -11 -5 -3 -10 -1 -10 4 0 6 5 11 10
11 6 0 10 -2 10 -4z m20 -20 c0 -20 -4 -23 -22 -18 -19 5 -20 7 -5 10 9 2 17
10 17 18 0 8 2 14 5 14 3 0 5 -11 5 -24z m60 20 c0 -2 -9 -6 -20 -9 -11 -3
-20 -1 -20 4 0 5 9 9 20 9 11 0 20 -2 20 -4z m-875 -16 c-17 -7 -17 -9 -2 -9
24 -1 22 -21 -3 -21 -13 0 -20 7 -20 20 0 14 6 20 23 19 21 0 21 -1 2 -9z
m528 3 c-7 -2 -19 -2 -25 0 -7 3 -2 5 12 5 14 0 19 -2 13 -5z m3587 3 c0 -11
-19 -15 -25 -6 -3 5 1 10 9 10 9 0 16 -2 16 -4z m40 0 c0 -11 -19 -15 -25 -6
-3 5 1 10 9 10 9 0 16 -2 16 -4z m260 0 c0 -11 -19 -15 -25 -6 -3 5 1 10 9 10
9 0 16 -2 16 -4z m-4340 -27 c0 -5 -9 -9 -20 -9 -19 0 -26 11 -14 23 8 8 34
-3 34 -14z m60 6 c0 -8 -9 -15 -20 -15 -25 0 -26 17 -2 23 9 3 18 5 20 6 1 0
2 -6 2 -14z m-170 -37 c6 -24 13 -49 16 -56 2 -8 -6 -22 -17 -31 -18 -15 -20
-21 -10 -39 11 -21 10 -22 -34 -22 l-45 0 0 95 0 95 40 0 c38 0 40 -1 50 -42z
m220 30 c0 -4 -7 -8 -15 -8 -8 0 -15 4 -15 8 0 5 7 9 15 9 8 0 15 -4 15 -9z
m130 -45 c11 -51 11 -58 -5 -69 -12 -9 -16 -20 -11 -38 6 -25 5 -26 -47 -26
-52 0 -54 1 -50 24 7 35 -12 41 -114 37 -89 -3 -93 -2 -93 18 0 20 5 21 94 21
102 0 106 2 106 61 0 28 1 29 53 29 l54 0 13 -57z m338 -2 c14 -50 14 -55 -3
-67 -12 -9 -16 -20 -11 -38 6 -25 5 -26 -47 -26 l-54 0 5 30 c5 34 11 33 -109
30 -80 -1 -87 0 -92 19 -5 20 -1 21 93 21 l98 0 7 46 6 45 46 -3 46 -3 15 -54z
m670 -33 l-3 -93 -220 -3 -220 -2 0 32 c0 31 -2 33 -32 30 -27 -2 -33 2 -33
18 0 15 7 20 29 20 26 0 29 4 35 45 l7 45 220 0 220 0 -3 -92z m2181 37 c25
-67 25 -62 1 -68 -17 -4 -19 -9 -10 -31 9 -26 9 -26 -35 -26 l-45 0 0 90 0 90
34 0 c33 0 36 -3 55 -55z m44 15 c-3 -3 -8 1 -10 8 -3 6 -12 12 -21 12 -14 0
-15 2 -3 9 10 7 19 4 27 -7 7 -9 10 -19 7 -22z m67 30 c0 -5 -5 -10 -11 -10
-5 0 -7 5 -4 10 3 6 8 10 11 10 2 0 4 -4 4 -10z m40 0 c0 -5 -5 -10 -11 -10
-5 0 -7 5 -4 10 3 6 8 10 11 10 2 0 4 -4 4 -10z m30 -6 c0 -8 -4 -12 -10 -9
-5 3 -10 10 -10 16 0 5 5 9 10 9 6 0 10 -7 10 -16z m27 -6 c-3 -8 -6 -5 -6 6
-1 11 2 17 5 13 3 -3 4 -12 1 -19z m213 -73 l0 -95 -90 0 c-80 0 -90 2 -90 18
0 10 -5 23 -12 30 -9 9 -8 12 8 14 10 1 -30 4 -91 7 -93 5 -110 9 -113 23 -3
15 8 18 90 20 l93 3 9 38 10 37 93 0 93 0 0 -95z m160 61 c0 -18 3 -48 6 -65
6 -27 4 -31 -15 -31 -23 0 -30 -35 -8 -43 6 -2 -18 -6 -56 -8 l-67 -4 0 93 0
92 70 0 70 0 0 -34z m298 -3 c1 -21 5 -50 8 -65 5 -24 2 -28 -16 -28 -18 0
-21 -5 -18 -24 4 -22 1 -25 -36 -28 -46 -5 -54 -2 -39 13 6 6 9 18 6 25 -4 10
-28 14 -94 14 -53 0 -89 4 -89 10 0 6 33 10 79 10 l79 0 6 31 c3 17 6 42 6 55
0 22 4 24 53 24 l53 0 2 -37z m342 -58 l0 -95 -75 0 c-74 0 -86 5 -64 27 23
23 -3 33 -92 33 -53 0 -89 4 -89 10 0 6 33 10 80 10 78 0 80 1 80 24 0 13 3
38 6 55 l7 31 73 0 74 0 0 -95z m-610 75 c0 -5 -4 -10 -10 -10 -5 0 -10 5 -10
10 0 6 5 10 10 10 6 0 10 -4 10 -10z m40 0 c0 -5 -4 -10 -10 -10 -5 0 -10 5
-10 10 0 6 5 10 10 10 6 0 10 -4 10 -10z m35 0 c-3 -5 -10 -10 -16 -10 -5 0
-9 5 -9 10 0 6 7 10 16 10 8 0 12 -4 9 -10z m225 0 c0 -5 -4 -10 -10 -10 -5 0
-10 5 -10 10 0 6 5 10 10 10 6 0 10 -4 10 -10z m40 0 c0 -5 -7 -10 -16 -10 -8
0 -12 5 -9 10 3 6 10 10 16 10 5 0 9 -4 9 -10z m30 0 c0 -5 -4 -10 -10 -10 -5
0 -10 5 -10 10 0 6 5 10 10 10 6 0 10 -4 10 -10z m-4410 -19 c0 -6 -9 -9 -20
-8 -11 1 -20 5 -20 9 0 4 9 8 20 8 11 0 20 -4 20 -9z m53 2 c-7 -2 -19 -2 -25
0 -7 3 -2 5 12 5 14 0 19 -2 13 -5z m47 -13 c0 -11 -4 -20 -8 -20 -4 0 -8 9
-9 20 -1 11 2 20 8 20 5 0 9 -9 9 -20z m180 12 c0 -5 -7 -9 -15 -9 -8 0 -15 4
-15 9 0 4 7 8 15 8 8 0 15 -4 15 -8z m53 1 c-7 -2 -19 -2 -25 0 -7 3 -2 5 12
5 14 0 19 -2 13 -5z m57 -2 c0 -5 -9 -7 -20 -4 -11 3 -20 7 -20 9 0 2 9 4 20
4 11 0 20 -4 20 -9z m60 5 c0 -2 -9 -6 -20 -9 -11 -3 -20 -1 -20 4 0 5 9 9 20
9 11 0 20 -2 20 -4z m278 -3 c-10 -2 -18 -8 -18 -13 0 -5 8 -11 18 -13 13 -4
11 -5 -5 -6 -17 -1 -23 5 -23 19 0 14 6 20 23 19 16 -1 18 -2 5 -6z m62 -3 c0
-5 -7 -10 -15 -10 -8 0 -15 5 -15 10 0 6 7 10 15 10 8 0 15 -4 15 -10z m2676
-10 c8 0 14 -4 14 -10 0 -5 -7 -10 -15 -10 -8 0 -15 2 -15 4 0 2 -2 10 -3 18
-2 7 -2 10 0 6 3 -5 11 -8 19 -8z m-3526 -5 c0 -8 -7 -15 -15 -15 -8 0 -15 7
-15 15 0 8 7 15 15 15 8 0 15 -7 15 -15z m680 1 c0 -8 -4 -18 -10 -21 -5 -3
-10 -4 -10 -1 0 2 -3 11 -6 20 -4 11 -1 16 10 16 9 0 16 -6 16 -14z m3424 -18
c4 -17 2 -28 -4 -28 -5 0 -10 14 -10 32 0 36 4 35 14 -4z m36 17 c0 -8 -4 -15
-10 -15 -5 0 -10 7 -10 15 0 8 5 15 10 15 6 0 10 -7 10 -15z m30 -17 c0 -36
-4 -35 -14 5 -4 16 -2 27 4 27 5 0 10 -14 10 -32z m70 22 c0 -5 -4 -10 -10
-10 -5 0 -10 5 -10 10 0 6 5 10 10 10 6 0 10 -4 10 -10z m157 -12 c-3 -8 -6
-5 -6 6 -1 11 2 17 5 13 3 -3 4 -12 1 -19z m43 7 c0 -8 -4 -15 -10 -15 -5 0
-10 7 -10 15 0 8 5 15 10 15 6 0 10 -7 10 -15z m30 0 c0 -8 -4 -15 -10 -15 -5
0 -10 7 -10 15 0 8 5 15 10 15 6 0 10 -7 10 -15z m27 -7 c-3 -8 -6 -5 -6 6 -1
11 2 17 5 13 3 -3 4 -12 1 -19z m37 1 c-3 -5 -10 -7 -15 -3 -5 3 -7 10 -3 15
3 5 10 7 15 3 5 -3 7 -10 3 -15z m-4419 1 c4 -6 -6 -10 -22 -9 -25 0 -26 1 -8
9 11 5 21 9 22 9 1 1 5 -3 8 -9z m3455 0 c0 -5 -4 -10 -10 -10 -5 0 -10 5 -10
10 0 6 5 10 10 10 6 0 10 -4 10 -10z m30 0 c0 -5 -4 -10 -10 -10 -5 0 -10 5
-10 10 0 6 5 10 10 10 6 0 10 -4 10 -10z m40 6 c0 -3 -4 -8 -10 -11 -5 -3 -10
-1 -10 4 0 6 5 11 10 11 6 0 10 -2 10 -4z m-3300 -10 c0 -3 -4 -8 -10 -11 -5
-3 -10 -1 -10 4 0 6 5 11 10 11 6 0 10 -2 10 -4z m103 -3 c-7 -2 -19 -2 -25 0
-7 3 -2 5 12 5 14 0 19 -2 13 -5z m290 0 c-7 -2 -19 -2 -25 0 -7 3 -2 5 12 5
14 0 19 -2 13 -5z m114 1 c-3 -3 -12 -4 -19 -1 -8 3 -5 6 6 6 11 1 17 -2 13
-5z m3350 -26 c-3 -8 -6 -5 -6 6 -1 11 2 17 5 13 3 -3 4 -12 1 -19z m43 13 c0
-6 -4 -13 -10 -16 -5 -3 -10 1 -10 9 0 9 5 16 10 16 6 0 10 -4 10 -9z m-100
-11 c0 -5 -4 -10 -10 -10 -5 0 -10 5 -10 10 0 6 5 10 10 10 6 0 10 -4 10 -10z
m270 0 c0 -5 -4 -10 -10 -10 -5 0 -10 5 -10 10 0 6 5 10 10 10 6 0 10 -4 10
-10z m30 0 c0 -5 -4 -10 -10 -10 -5 0 -10 5 -10 10 0 6 5 10 10 10 6 0 10 -4
10 -10z m30 0 c0 -5 -4 -10 -10 -10 -5 0 -10 5 -10 10 0 6 5 10 10 10 6 0 10
-4 10 -10z m65 0 c-3 -5 -10 -10 -16 -10 -5 0 -9 5 -9 10 0 6 7 10 16 10 8 0
12 -4 9 -10z m-3755 -20 c0 -18 -7 -20 -54 -20 -45 0 -54 3 -59 20 -5 18 0 20
54 20 52 0 59 -2 59 -20z m2741 -63 c-13 -13 -30 0 -28 23 1 18 2 18 19 3 12
-10 15 -20 9 -26z m87 36 c-15 -2 -42 -2 -60 0 -18 2 -6 4 27 4 33 0 48 -2 33
-4z m-3432 -14 c3 -6 1 -16 -5 -22 -7 -7 -12 -6 -17 6 -9 24 -171 25 -180 2
-7 -18 -24 -10 -24 11 0 11 21 14 109 14 68 0 112 -4 117 -11z m340 0 c3 -6 1
-16 -5 -22 -9 -9 -15 -8 -22 6 -14 24 -166 26 -176 1 -4 -12 -8 -13 -14 -3 -4
7 -5 17 -3 21 8 12 212 10 220 -3z m342 -6 c-4 -22 -28 -29 -28 -9 0 13 -14
16 -85 16 -72 0 -85 -3 -85 -16 0 -13 -3 -14 -15 -4 -28 23 -4 30 106 30 98 0
110 -2 107 -17z m3347 7 c4 -6 -23 -10 -74 -10 -47 0 -81 4 -81 10 0 6 31 10
74 10 41 0 78 -4 81 -10z m55 0 c0 -5 -9 -10 -20 -10 -11 0 -20 5 -20 10 0 6
9 10 20 10 11 0 20 -4 20 -10z m300 0 c0 -6 -40 -10 -99 -10 -56 0 -103 4
-106 10 -4 6 32 10 99 10 64 0 106 -4 106 -10z m-892 -20 c2 -12 -10 -15 -63
-15 -56 0 -65 3 -65 18 0 16 8 18 62 15 46 -2 64 -7 66 -18z m42 4 c0 -17 -22
-14 -28 4 -2 7 3 12 12 12 9 0 16 -7 16 -16z m-3580 -14 c0 -6 -30 -10 -70
-10 -40 0 -70 4 -70 10 0 6 30 10 70 10 40 0 70 -4 70 -10z m350 0 c0 -6 -30
-10 -69 -10 -39 0 -73 5 -76 10 -4 6 22 10 69 10 44 0 76 -4 76 -10z m330 2
c0 -5 -29 -10 -65 -11 -40 -1 -65 2 -65 8 0 7 26 11 65 11 36 0 65 -4 65 -8z
m3320 4 c0 -3 -4 -8 -10 -11 -5 -3 -10 -1 -10 4 0 6 5 11 10 11 6 0 10 -2 10
-4z m40 0 c0 -2 -7 -6 -15 -10 -8 -3 -15 -1 -15 4 0 6 7 10 15 10 8 0 15 -2
15 -4z m40 -6 c0 -5 -7 -10 -15 -10 -8 0 -15 5 -15 10 0 6 7 10 15 10 8 0 15
-4 15 -10z m300 2 c0 -10 -96 -9 -106 1 -4 4 18 7 49 7 32 0 57 -3 57 -8z m40
-2 c0 -5 -4 -10 -10 -10 -5 0 -10 5 -10 10 0 6 5 10 10 10 6 0 10 -4 10 -10z"/>
<path d="M4697 2433 c-14 -14 -6 -45 13 -50 26 -7 26 -33 -1 -33 -11 0 -17 -4
-14 -10 9 -15 31 -12 49 5 18 19 11 42 -15 50 -25 8 -24 25 1 25 11 0 20 5 20
10 0 11 -43 14 -53 3z"/>
<path d="M4770 2402 c0 -50 19 -77 48 -68 19 6 22 15 22 57 0 27 -4 49 -10 49
-5 0 -10 -20 -10 -45 0 -25 -4 -45 -10 -45 -5 0 -10 20 -10 45 0 33 -4 45 -15
45 -11 0 -15 -11 -15 -38z"/>
<path d="M4868 2385 c2 -30 8 -55 13 -55 5 0 9 9 9 20 0 13 7 20 19 20 24 0
37 36 21 55 -7 8 -24 15 -39 15 -25 0 -26 -1 -23 -55z m42 14 c0 -10 -4 -19
-10 -19 -5 0 -10 12 -10 26 0 14 4 23 10 19 6 -3 10 -15 10 -26z"/>
<path d="M4958 2385 c4 -50 6 -55 28 -55 13 0 24 5 24 10 0 6 -7 10 -15 10 -8
0 -15 7 -15 15 0 8 7 15 15 15 8 0 15 5 15 10 0 6 -7 10 -15 10 -8 0 -15 5
-15 10 0 6 7 10 15 10 8 0 15 5 15 10 0 6 -12 10 -27 10 -28 0 -28 -1 -25 -55z"/>
<path d="M5038 2385 c2 -30 8 -55 13 -55 5 0 9 9 9 20 0 11 4 20 9 20 5 0 11
-9 14 -20 3 -11 10 -20 16 -20 7 0 7 8 2 22 -5 14 -4 30 2 40 15 23 -7 48 -42
48 -25 0 -26 -1 -23 -55z m42 26 c0 -11 -4 -23 -10 -26 -6 -4 -10 5 -10 19 0
14 5 26 10 26 6 0 10 -9 10 -19z"/>
<path d="M5170 2385 c0 -30 5 -55 10 -55 6 0 10 15 10 33 1 29 2 30 14 14 14
-18 15 -18 25 0 9 15 10 13 11 -14 0 -18 5 -33 10 -33 6 0 10 25 10 55 0 59
-13 71 -32 29 l-12 -25 -13 25 c-21 41 -33 31 -33 -29z"/>
<path d="M5292 2389 c-7 -29 -10 -54 -8 -56 2 -2 14 2 25 9 18 11 23 11 31 -2
16 -26 21 -4 9 49 -8 38 -15 51 -28 51 -13 0 -21 -14 -29 -51z m38 1 c0 -11
-4 -20 -10 -20 -5 0 -10 9 -10 20 0 11 5 20 10 20 6 0 10 -9 10 -20z"/>
<path d="M5380 2386 c0 -31 5 -56 10 -56 6 0 10 9 10 20 0 11 4 20 9 20 5 0
11 -9 14 -20 10 -38 22 -20 22 33 0 51 0 52 -32 55 l-33 3 0 -55z m43 30 c3
-8 -1 -20 -9 -26 -12 -10 -14 -8 -14 14 0 28 14 35 23 12z"/>
<path d="M5460 2430 c0 -5 7 -10 15 -10 11 0 15 -12 15 -45 0 -25 5 -45 10
-45 6 0 10 20 10 45 0 25 5 45 10 45 6 0 10 5 10 10 0 6 -16 10 -35 10 -19 0
-35 -4 -35 -10z"/>
<path d="M2738 2283 c-10 -2 -19 -10 -19 -16 -2 -22 3 -42 13 -48 15 -10 -33
-15 -72 -8 -29 5 -31 7 -10 9 19 2 15 4 -15 10 -22 4 -41 4 -43 0 -2 -4 -12
-6 -22 -3 -11 3 -17 10 -14 17 3 6 -6 -2 -20 -17 -14 -15 -26 -32 -26 -38 0
-5 64 -9 155 -9 108 0 155 3 155 11 0 8 4 8 13 1 7 -7 93 -11 227 -11 130 -1
210 2 201 8 -11 7 -9 10 8 16 29 9 26 23 -6 27 -20 2 -28 8 -27 21 1 12 -5 17
-22 17 -13 0 -24 4 -24 9 0 8 -421 13 -452 4z m42 -53 c0 -5 -5 -10 -11 -10
-5 0 -7 5 -4 10 3 6 8 10 11 10 2 0 4 -4 4 -10z"/>
<path d="M3265 2270 c-8 -13 15 -24 27 -12 6 6 4 11 -6 15 -8 3 -18 2 -21 -3z"/>
<path d="M3460 2268 c0 -5 16 -8 35 -8 19 0 35 3 35 8 0 4 -16 7 -35 7 -19 0
-35 -3 -35 -7z"/>
<path d="M4010 2220 c0 -5 -26 -10 -57 -10 -37 0 -53 -4 -44 -9 11 -7 11 -9 0
-14 -8 -3 14 -5 49 -5 58 1 62 2 62 24 0 13 -2 24 -5 24 -3 0 -5 -4 -5 -10z"/>
<path d="M3457 2203 c-18 -17 -1 -23 63 -23 66 0 90 10 54 24 -21 8 -109 8
-117 -1z"/>
<path d="M3648 2193 c7 -3 16 -2 19 1 4 3 -2 6 -13 5 -11 0 -14 -3 -6 -6z"/>
<path d="M6370 2279 c-30 -5 -61 -6 -68 -4 -7 3 -10 0 -7 -5 3 -6 -5 -10 -19
-10 -14 0 -28 -4 -31 -10 -4 -6 6 -10 23 -10 21 0 32 -7 40 -25 7 -15 8 -25 2
-25 -6 0 -10 5 -10 11 0 5 -5 7 -10 4 -6 -4 -24 1 -41 9 -28 14 -30 14 -25 -1
6 -14 3 -13 -20 2 -15 9 -24 12 -20 7 3 -6 -1 -18 -10 -26 -14 -15 26 -16 458
-14 260 1 462 3 448 6 -38 6 -46 20 -16 28 30 7 31 10 11 31 -21 21 -10 30 12
11 31 -28 163 -16 163 14 0 10 -813 17 -880 7z m-26 -44 c3 -9 0 -15 -9 -15
-8 0 -15 7 -15 15 0 8 4 15 9 15 5 0 11 -7 15 -15z"/>
<path d="M7372 2280 c-13 -6 -30 -16 -38 -24 -12 -13 -12 -15 3 -14 10 0 32
-5 48 -10 l30 -11 -30 0 c-100 -2 -127 -4 -102 -8 38 -6 34 -23 -5 -18 -17 2
-36 11 -41 20 -6 11 -15 14 -30 9 -12 -4 -34 -7 -49 -6 -19 2 -28 -3 -28 -12
0 -8 -4 -16 -10 -18 -5 -1 10 -3 35 -4 25 0 45 3 45 8 0 4 9 8 20 8 11 0 20
-4 20 -10 0 -5 25 -10 56 -10 50 0 55 2 44 15 -12 14 -8 15 26 11 26 -3 45 1
57 12 12 11 17 12 17 2 0 -10 3 -10 15 0 8 7 15 8 15 2 0 -5 9 -12 21 -15 17
-5 15 1 -14 36 -36 44 -64 54 -105 37z"/>
<path d="M4920 2251 c0 -5 7 -12 16 -15 15 -6 15 -8 -1 -26 -18 -20 -17 -20
113 -20 l132 0 0 25 c0 14 5 25 11 25 5 0 7 5 4 10 -8 13 -275 14 -275 1z"/>
<path d="M4691 1984 c0 -11 3 -14 6 -6 3 7 2 16 -1 19 -3 4 -6 -2 -5 -13z"/>
<path d="M5473 1570 c0 -36 2 -50 4 -32 2 17 2 47 0 65 -2 17 -4 3 -4 -33z"/>
<path d="M3160 1740 c0 -5 5 -10 10 -10 6 0 10 5 10 10 0 6 -4 10 -10 10 -5 0
-10 -4 -10 -10z"/>
<path d="M1303 2375 c0 -33 2 -45 4 -27 2 18 2 45 0 60 -2 15 -4 0 -4 -33z"/>
<path d="M1913 2073 c-7 -2 -13 -11 -13 -19 0 -9 -4 -13 -8 -10 -20 12 -8 -34
14 -55 l24 -22 -1 56 c-1 31 -2 57 -3 56 0 0 -7 -3 -13 -6z"/>
<path d="M7625 2068 c-132 -72 -160 -250 -56 -361 31 -34 72 -57 101 -57 18 0
20 -6 21 -67 0 -56 2 -63 10 -43 6 14 9 43 7 64 -3 38 -1 40 32 49 87 22 140
101 140 205 0 95 -41 171 -112 208 -32 17 -115 18 -143 2z m128 -12 c18 -7 47
-29 64 -49 98 -112 47 -317 -85 -343 l-32 -6 0 59 c0 60 0 60 51 103 27 23 48
45 44 48 -3 3 -22 -11 -43 -31 -21 -20 -41 -37 -44 -37 -4 0 -9 28 -11 63 -3
56 -3 53 -5 -23 l-2 -84 -50 49 c-27 27 -50 44 -50 38 0 -7 22 -31 50 -55 45
-39 50 -47 50 -85 0 -50 -10 -53 -70 -23 -132 67 -133 297 -1 367 50 26 87 29
134 9z"/>
<path d="M1845 2050 c3 -5 8 -10 11 -10 2 0 4 5 4 10 0 6 -5 10 -11 10 -5 0
-7 -4 -4 -10z"/>
<path d="M1980 1972 c0 -37 9 -45 28 -26 12 13 13 17 2 24 -7 4 -9 13 -6 19 4
6 0 11 -8 11 -11 0 -16 -9 -16 -28z"/>
<path d="M7726 1470 c-74 -27 -152 -76 -193 -123 -24 -27 -33 -49 -38 -91 -4
-31 -13 -61 -21 -67 -19 -15 -18 -45 2 -53 9 -3 40 -6 69 -6 45 0 59 -4 80
-26 21 -21 32 -25 58 -20 18 3 39 15 49 26 15 19 29 20 195 20 179 0 180 0
203 -25 13 -14 34 -25 46 -25 12 0 36 11 52 25 20 16 42 25 66 25 30 0 37 4
42 25 9 37 -15 121 -43 149 -13 14 -53 34 -87 46 -34 11 -78 31 -98 45 -43 29
-56 32 -37 8 13 -16 12 -17 -3 -5 -10 8 -16 19 -15 25 1 6 -18 22 -43 36 -63
36 -199 41 -284 11z m114 -60 l0 -50 -115 0 c-63 0 -115 2 -115 5 0 12 84 59
137 75 90 29 93 28 93 -30z m158 18 c31 -16 48 -32 50 -46 3 -21 1 -22 -92
-22 l-96 0 0 51 0 52 45 -6 c25 -2 67 -16 93 -29z m-359 -21 c-9 -7 -32 -26
-52 -44 -36 -31 -36 -32 -21 -62 8 -17 23 -35 32 -41 11 -6 12 -10 4 -10 -9 0
-10 -5 -2 -19 8 -16 13 -18 34 -8 13 7 22 15 20 19 -2 4 10 3 28 -2 18 -5 47
-24 63 -43 18 -20 41 -34 58 -35 24 -2 27 1 26 31 -1 17 -3 24 -6 15 -2 -10
-12 -18 -21 -17 -11 0 -12 2 -4 6 6 2 12 9 12 14 0 4 -7 6 -15 3 -8 -4 -17 1
-21 9 -3 8 -23 27 -44 41 -31 20 -40 23 -49 12 -12 -15 -57 -10 -68 7 -4 6 0
8 10 4 20 -7 22 4 5 21 -9 9 -9 12 0 12 7 0 12 -4 12 -9 0 -5 7 -11 14 -14 10
-4 13 -1 9 9 -3 9 2 15 13 16 11 1 -6 4 -36 8 -42 5 -25 7 73 8 l127 2 0 -95
0 -95 -45 0 c-37 0 -45 3 -45 18 0 22 -25 47 -57 56 -30 10 -81 -19 -89 -49
-9 -38 -54 -34 -76 6 -25 42 -23 60 10 85 24 20 25 25 15 43 -7 11 -13 23 -13
25 0 6 101 86 109 86 3 0 -1 -6 -10 -13z m546 -67 c66 -21 95 -39 89 -55 -3
-8 6 -29 20 -46 15 -17 26 -43 26 -60 0 -25 -4 -29 -29 -29 -22 0 -31 6 -41
30 -7 16 -21 32 -32 36 -11 3 -18 8 -15 10 10 10 39 -10 53 -37 16 -31 41 -38
50 -14 13 34 -71 111 -108 99 -11 -3 -18 0 -18 7 0 16 -13 3 -16 -17 -1 -8 4
-18 13 -21 11 -4 6 -10 -16 -19 -17 -7 -39 -27 -49 -44 -31 -55 -42 -39 -42
65 0 95 0 95 25 95 30 0 31 6 8 34 -18 20 -18 20 12 -1 17 -11 48 -26 70 -33z
m-94 24 c12 -14 11 -16 -5 -13 -11 2 -21 10 -24 17 -5 17 13 15 29 -4z m-46
-119 l0 -95 -92 0 -93 0 0 95 0 95 93 0 92 0 0 -95z m-515 44 c-7 -11 -14 -19
-16 -16 -7 7 7 37 17 37 6 0 5 -9 -1 -21z m774 -25 c3 -8 2 -12 -4 -9 -6 3
-10 10 -10 16 0 14 7 11 14 -7z m-584 -74 c24 -24 25 -38 4 -68 -10 -15 -25
-22 -49 -22 -24 0 -39 7 -49 22 -20 29 -20 30 5 62 25 31 61 34 89 6z m502 3
c31 -28 22 -70 -19 -92 -60 -31 -116 55 -61 93 29 21 57 20 80 -1z m-702 -28
c0 -19 -20 -29 -32 -17 -15 15 -2 43 17 36 8 -3 15 -12 15 -19z"/>
<path d="M7556 1265 c-3 -8 -1 -15 4 -15 13 0 22 18 11 24 -5 3 -11 -1 -15 -9z"/>
<path d="M8080 1311 c0 -25 6 -27 13 -6 4 8 2 17 -3 20 -6 4 -10 -3 -10 -14z"/>
<path d="M7904 1306 c2 -13 -4 -38 -15 -55 -10 -17 -19 -45 -19 -61 0 -29 2
-30 45 -30 44 0 45 1 66 49 11 27 27 52 35 55 8 3 14 19 14 36 l0 30 -65 0
c-63 0 -65 -1 -61 -24z"/>
<path d="M7660 1165 c-10 -11 -10 -19 -2 -27 15 -15 44 -2 40 19 -4 23 -22 27
-38 8z"/>
<path d="M8163 1169 c-16 -16 -5 -39 19 -39 14 0 19 6 16 22 -4 25 -19 33 -35
17z"/>
<path d="M8514 1455 c-33 -28 -26 -33 12 -9 23 16 26 15 44 -1 11 -10 23 -16
26 -13 3 3 -8 15 -24 26 l-28 21 -30 -24z"/>
<path d="M8640 1410 c0 -5 25 -10 55 -10 30 0 55 5 55 10 0 6 -25 10 -55 10
-30 0 -55 -4 -55 -10z"/>
<path d="M1790 1392 c-19 -9 -44 -31 -56 -48 -28 -42 -66 -224 -62 -294 l3
-55 48 -3 c32 -2 47 -8 47 -17 0 -20 49 -55 78 -55 15 0 37 13 58 35 l33 35
160 0 c151 0 160 -1 166 -20 4 -11 20 -27 36 -36 42 -21 87 -10 107 27 15 25
23 28 72 31 52 3 55 5 58 31 2 15 -1 27 -7 27 -7 0 -11 22 -11 51 0 46 -4 55
-34 84 -19 18 -51 69 -72 114 -27 59 -45 86 -65 97 -22 11 -80 14 -276 14
-216 0 -252 -2 -283 -18z m300 -92 l0 -90 -190 0 c-151 0 -190 3 -190 13 0 41
33 118 61 141 30 25 34 26 175 26 l144 0 0 -90z m255 84 c15 -6 55 -73 55 -92
0 -5 -12 -12 -27 -15 -40 -8 -87 -27 -81 -32 3 -3 18 -1 34 4 74 24 82 23 99
-9 l16 -30 -168 0 -168 0 3 90 3 90 109 0 c60 0 116 -3 125 -6z m-255 -284 l0
-90 -76 0 c-73 0 -76 1 -108 35 -44 47 -78 47 -122 -1 -28 -29 -40 -35 -66
-32 -40 4 -43 16 -28 108 l12 70 194 0 194 0 0 -90z m88 83 l-58 -4 0 -43 c0
-35 5 -48 30 -69 17 -15 30 -32 30 -38 0 -7 15 -10 40 -7 22 2 40 0 40 -4 0
-5 -34 -8 -75 -8 l-75 0 0 90 0 90 63 -2 62 -2 -57 -3z m265 -20 c3 -17 18
-35 35 -45 27 -16 29 -21 22 -52 -4 -18 -10 -39 -14 -45 -14 -21 -48 -11 -81
25 -35 37 -57 41 -109 19 -13 -6 -17 -5 -13 2 5 7 0 9 -13 6 -17 -4 -20 -1
-18 21 2 18 8 26 21 26 25 0 73 26 80 44 4 10 -2 16 -21 19 -15 2 3 5 39 6 65
1 67 0 72 -26z m57 -20 c0 -7 -4 -13 -8 -13 -15 0 -32 24 -32 44 0 18 1 19 20
1 11 -10 20 -24 20 -32z m-608 -100 c40 -36 10 -103 -45 -103 -39 0 -67 26
-67 61 0 51 72 78 112 42z m498 -3 c25 -25 25 -51 2 -81 -37 -45 -122 -16
-122 42 0 29 36 59 70 59 17 0 39 -9 50 -20z m140 -14 c0 -15 -18 -31 -26 -23
-7 7 7 37 17 37 5 0 9 -6 9 -14z"/>
<path d="M2138 1253 c6 -2 18 -2 25 0 6 3 1 5 -13 5 -14 0 -19 -2 -12 -5z"/>
<path d="M2203 1253 c9 -2 25 -2 35 0 9 3 1 5 -18 5 -19 0 -27 -2 -17 -5z"/>
<path d="M1706 1149 c-8 -42 -3 -46 40 -26 19 10 40 14 46 11 7 -5 9 -1 5 9
-6 17 6 21 58 18 l20 -1 -20 9 c-11 4 -48 9 -81 10 l-61 2 -7 -32z"/>
<path d="M1992 1173 c16 -36 53 -84 56 -75 2 7 11 12 19 12 13 0 13 3 3 15 -9
10 -9 15 -1 15 6 0 11 9 11 20 0 17 -7 20 -46 20 -25 0 -44 -3 -42 -7z"/>
<path d="M1872 1101 c-9 -5 -5 -12 13 -21 14 -7 32 -24 40 -37 9 -14 25 -23
40 -23 23 0 24 2 13 25 -6 14 -17 25 -24 25 -7 0 -14 5 -16 11 -2 5 -10 11
-18 12 -8 2 -20 6 -25 9 -6 4 -16 3 -23 -1z"/>
<path d="M2437 1109 c-9 -6 -17 -7 -17 -3 0 4 -6 -1 -14 -12 -13 -17 -12 -21
6 -41 16 -17 25 -20 34 -12 7 6 17 8 22 5 6 -3 12 8 14 25 5 35 -17 53 -45 38z"/>
<path d="M1823 1004 c-8 -22 18 -37 36 -20 7 8 10 19 7 25 -10 16 -36 13 -43
-5z"/>
<path d="M2320 1000 c0 -16 5 -21 23 -18 12 2 22 10 22 18 0 8 -10 16 -22 18
-18 3 -23 -2 -23 -18z"/>
<path d="M5083 1370 c0 -25 2 -35 4 -22 2 12 2 32 0 45 -2 12 -4 2 -4 -23z"/>
<path d="M1035 1390 c3 -5 13 -10 21 -10 8 0 14 5 14 10 0 6 -9 10 -21 10 -11
0 -17 -4 -14 -10z"/>
<path d="M1140 1390 c0 -6 27 -10 60 -10 33 0 60 4 60 10 0 6 -27 10 -60 10
-33 0 -60 -4 -60 -10z"/>
<path d="M1315 1390 c3 -5 24 -10 45 -10 21 0 42 5 45 10 4 6 -13 10 -45 10
-32 0 -49 -4 -45 -10z"/>
<path d="M6220 1358 c0 -5 20 -8 45 -8 25 0 45 4 45 10 0 5 -20 8 -45 7 -25
-1 -45 -5 -45 -9z"/>
<path d="M6395 1360 l-40 -7 48 -2 c26 0 47 4 47 9 0 6 -3 9 -7 9 -5 -1 -26
-5 -48 -9z"/>
<path d="M3493 1294 c7 -7 189 -5 196 2 2 2 -42 4 -99 4 -57 0 -100 -3 -97 -6z"/>
<path d="M3745 1290 c3 -5 15 -10 26 -10 10 0 19 5 19 10 0 6 -12 10 -26 10
-14 0 -23 -4 -19 -10z"/>
<path d="M5670 1250 c0 -5 25 -10 55 -10 30 0 55 5 55 10 0 6 -25 10 -55 10
-30 0 -55 -4 -55 -10z"/>
<path d="M5843 1254 c7 -7 229 -5 236 2 2 2 -51 4 -119 4 -68 0 -121 -3 -117
-6z"/>
<path d="M4370 1218 c0 -4 23 -8 52 -8 28 0 49 3 45 6 -9 9 -97 11 -97 2z"/>
<path d="M5083 1190 c0 -25 2 -35 4 -22 2 12 2 32 0 45 -2 12 -4 2 -4 -23z"/>
<path d="M4253 1213 c15 -2 39 -2 55 0 15 2 2 4 -28 4 -30 0 -43 -2 -27 -4z"/>
<path d="M3400 1171 c-36 -5 -74 -12 -85 -16 -73 -29 -114 -93 -125 -198 -5
-46 -13 -72 -25 -81 -10 -7 -16 -22 -13 -37 3 -21 9 -24 46 -27 23 -2 42 -8
42 -13 0 -24 50 -59 84 -59 28 0 41 7 63 35 l28 35 172 0 172 0 15 -29 c17
-32 34 -41 77 -41 29 0 79 37 79 59 0 6 25 11 56 13 43 2 60 8 68 21 9 15 7
22 -11 34 -18 12 -23 25 -23 57 0 54 -19 80 -72 95 -27 8 -61 31 -93 61 -76
75 -124 92 -269 95 -67 2 -150 0 -186 -4z m190 -96 l0 -85 -190 0 c-212 0
-207 -2 -170 70 39 76 94 98 253 99 l107 1 0 -85z m175 57 c22 -11 60 -41 85
-67 31 -31 58 -49 88 -57 85 -21 50 -28 -142 -28 l-196 0 0 91 0 92 63 -5 c34
-3 80 -15 102 -26z m-185 -237 l0 -75 -82 0 c-83 0 -83 0 -102 33 -11 17 -20
36 -20 41 -1 5 -8 11 -16 13 -13 4 -13 3 0 -7 12 -8 6 -9 -22 -4 -34 6 -41 3
-74 -30 -54 -54 -64 -49 -64 34 l0 70 190 0 190 0 0 -75z m426 39 c4 -15 3
-43 -2 -63 -7 -29 -15 -36 -41 -42 -27 -5 -32 -3 -38 18 -3 14 -20 30 -39 40
-43 20 -84 8 -111 -35 -20 -31 -22 -31 -97 -32 l-78 0 0 70 0 70 200 0 200 0
6 -26z m-636 -74 c11 -11 20 -31 20 -45 0 -30 -36 -65 -67 -65 -27 0 -73 41
-73 65 0 25 46 65 75 65 14 0 34 -9 45 -20z m529 -6 c27 -34 26 -50 -4 -79
-45 -46 -115 -19 -115 44 0 59 81 83 119 35z m-709 -9 c0 -26 -14 -33 -25 -15
-9 14 1 40 15 40 5 0 10 -11 10 -25z m850 1 c0 -16 -18 -31 -27 -22 -8 8 5 36
17 36 5 0 10 -6 10 -14z"/>
<path d="M3268 953 c7 -3 16 -2 19 1 4 3 -2 6 -13 5 -11 0 -14 -3 -6 -6z"/>
<path d="M3495 950 c-3 -5 6 -12 20 -16 14 -3 25 -11 25 -16 0 -5 7 -3 15 6 8
8 15 19 15 25 0 14 -67 15 -75 1z"/>
<path d="M3390 885 c0 -17 53 -52 70 -48 29 8 24 20 -10 28 -16 4 -32 11 -35
16 -7 10 -25 13 -25 4z"/>
<path d="M3628 943 c6 -2 18 -2 25 0 6 3 1 5 -13 5 -14 0 -19 -2 -12 -5z"/>
<path d="M3881 908 c2 -2 17 -14 32 -28 19 -16 27 -20 25 -10 -4 19 -28 39
-47 40 -8 0 -12 -1 -10 -2z"/>
<path d="M3720 850 c-14 -4 -20 -8 -13 -9 6 -1 18 -4 26 -7 8 -3 17 2 20 10 7
17 4 18 -33 6z"/>
<path d="M3297 826 c-7 -19 18 -40 39 -32 8 3 14 14 12 23 -4 22 -43 29 -51 9z"/>
<path d="M3824 825 c-4 -9 -2 -21 4 -27 15 -15 44 -1 40 19 -4 23 -36 29 -44
8z"/>
<path d="M5083 1005 c0 -27 2 -38 4 -22 2 15 2 37 0 50 -2 12 -4 0 -4 -28z"/>
<path d="M6894 965 c-25 -17 -35 -41 -65 -150 -12 -44 -28 -89 -35 -100 -8
-11 -14 -41 -14 -68 0 -33 -5 -49 -15 -53 -21 -9 -19 -51 4 -64 11 -5 38 -10
60 -10 29 0 41 -4 41 -14 0 -8 11 -27 24 -43 19 -22 32 -28 66 -28 34 0 47 6
66 28 13 16 24 35 24 43 0 12 42 14 275 14 l275 0 9 -22 c12 -32 42 -57 77
-63 37 -7 91 25 100 60 6 23 11 25 63 25 31 0 62 5 69 12 17 17 15 55 -3 62
-10 4 -15 20 -15 50 0 64 -27 83 -132 92 l-80 7 -49 103 c-28 57 -60 110 -72
119 -31 22 -642 23 -673 0z m664 -11 c17 -12 112 -190 112 -210 0 -2 -6 -4
-12 -4 -7 0 -35 44 -63 98 l-50 97 -130 3 c-88 2 -132 7 -137 15 -9 14 -10 -1
-8 -125 l1 -88 -225 0 -225 0 9 28 c4 15 18 59 29 99 14 47 29 78 43 88 34 23
623 23 656 -1z m25 -121 l48 -93 -176 0 -175 0 0 95 0 96 128 -3 127 -3 48
-92z m211 -118 c33 -3 66 -11 73 -17 19 -15 17 -94 -2 -102 -8 -3 -15 -17 -15
-31 0 -38 -40 -33 -83 10 -27 27 -43 35 -72 35 -30 0 -44 -7 -71 -35 l-33 -35
-155 0 -156 0 0 90 0 90 203 2 c111 2 213 2 227 1 14 -1 52 -5 84 -8z m-534
-85 l0 -90 -104 0 c-96 0 -105 2 -111 20 -7 23 -53 50 -85 50 -30 0 -77 -27
-90 -50 -6 -11 -21 -20 -34 -20 -19 0 -24 7 -30 38 -8 49 -8 127 1 135 3 4
107 7 230 7 l223 0 0 -90z m500 -68 c25 -32 25 -53 -1 -86 -40 -51 -139 -25
-139 38 0 39 11 57 42 71 39 16 74 8 98 -23z m-968 3 c6 -28 -18 -36 -29 -9
-4 12 9 32 23 34 1 0 4 -11 6 -25z m227 -1 c12 -15 21 -34 21 -44 0 -10 -9
-29 -21 -44 -29 -37 -89 -37 -118 0 -27 34 -27 62 1 91 31 33 90 32 117 -3z
m899 0 c3 -22 -21 -39 -39 -28 -11 6 -12 38 -2 48 13 13 38 1 41 -20z"/>
<path d="M7510 701 c8 -6 18 -7 22 -5 4 3 8 0 8 -5 0 -16 42 -13 64 4 18 14
14 15 -45 15 -43 0 -59 -3 -49 -9z"/>
<path d="M7295 690 c-4 -6 8 -10 29 -10 20 0 36 5 36 10 0 6 -13 10 -29 10
-17 0 -33 -4 -36 -10z"/>
<path d="M7809 695 c-1 -3 -2 -11 -3 -17 0 -8 -19 -14 -44 -16 -34 -3 -42 -7
-38 -18 3 -9 1 -12 -4 -9 -6 3 -10 2 -10 -3 0 -4 16 -16 35 -25 19 -9 40 -25
46 -35 11 -17 14 -16 45 14 26 24 34 40 34 67 0 23 -6 37 -16 41 -19 7 -44 8
-45 1z"/>
<path d="M7301 564 c0 -11 3 -14 6 -6 3 7 2 16 -1 19 -3 4 -6 -2 -5 -13z"/>
<path d="M7425 570 c6 -9 0 -10 -25 -5 -23 5 -30 4 -26 -4 9 -13 66 -15 66 -2
0 6 -5 13 -12 17 -7 5 -8 3 -3 -6z"/>
<path d="M6973 698 c15 -42 17 -57 6 -64 -8 -4 -9 -3 -5 4 5 8 -2 8 -24 1 -39
-14 -38 -19 3 -17 19 1 38 -1 43 -5 5 -3 9 9 9 26 0 26 6 35 35 49 l35 17 -54
1 c-38 0 -52 -3 -48 -12z"/>
<path d="M6867 590 c-16 -17 -33 -28 -38 -24 -5 3 -9 0 -9 -5 0 -22 36 -8 63
25 36 42 23 45 -16 4z"/>
<path d="M7660 541 c-16 -31 4 -63 37 -59 34 4 52 32 37 56 -16 26 -60 28 -74
3z m60 -6 c10 -12 10 -18 0 -30 -25 -30 -61 -7 -46 30 3 8 12 15 19 15 8 0 20
-7 27 -15z"/>
<path d="M6934 553 c-34 -25 -15 -77 26 -71 31 4 48 32 34 56 -12 19 -43 26
-60 15z m46 -18 c18 -21 5 -47 -22 -43 -26 3 -37 36 -16 49 18 12 24 11 38 -6z"/>
<path d="M1123 873 c31 -2 83 -2 115 0 31 2 5 3 -58 3 -63 0 -89 -1 -57 -3z"/>
<path d="M6012 842 c-23 -15 -42 -31 -42 -36 0 -4 10 -2 23 6 67 44 63 44 102
14 20 -15 38 -26 41 -23 4 4 -42 42 -71 60 -6 3 -30 -6 -53 -21z"/>
<path d="M5083 820 c0 -25 2 -35 4 -22 2 12 2 32 0 45 -2 12 -4 2 -4 -23z"/>
<path d="M4535 788 c-22 -16 -42 -34 -44 -40 -2 -6 17 4 42 22 l46 33 41 -33
c22 -18 43 -30 46 -27 4 4 -55 55 -81 69 -5 3 -28 -8 -50 -24z"/>
<path d="M8180 780 c0 -6 30 -10 71 -10 44 0 68 4 64 10 -3 6 -35 10 -71 10
-36 0 -64 -4 -64 -10z"/>
<path d="M8385 780 c-3 -5 3 -10 15 -10 12 0 18 5 15 10 -3 6 -10 10 -15 10
-5 0 -12 -4 -15 -10z"/>
<path d="M2520 742 c0 -8 148 -7 157 2 4 3 -30 6 -75 6 -45 0 -82 -3 -82 -8z"/>
<path d="M1712 669 c-24 -17 -41 -33 -38 -36 3 -3 21 6 40 21 19 14 38 26 42
26 4 0 22 -12 41 -26 19 -14 36 -24 39 -21 4 4 -69 68 -77 67 -2 -1 -23 -15
-47 -31z"/>
<path d="M5083 630 c0 -25 2 -35 4 -22 2 12 2 32 0 45 -2 12 -4 2 -4 -23z"/>
<path d="M3838 523 c18 -2 45 -2 60 0 15 2 0 4 -33 4 -33 0 -45 -2 -27 -4z"/>
<path d="M4000 521 c0 -4 24 -6 53 -4 77 7 81 11 10 12 -35 1 -63 -3 -63 -8z"/>
<path d="M5083 450 c0 -25 2 -35 4 -22 2 12 2 32 0 45 -2 12 -4 2 -4 -23z"/>
<path d="M2223 463 c37 -2 96 -2 130 0 34 2 4 3 -68 3 -71 0 -99 -1 -62 -3z"/>
<path d="M2498 463 c18 -2 45 -2 60 0 15 2 0 4 -33 4 -33 0 -45 -2 -27 -4z"/>
<path d="M6343 453 c20 -2 54 -2 75 0 20 2 3 4 -38 4 -41 0 -58 -2 -37 -4z"/>
<path d="M1000 410 c0 -6 30 -10 70 -10 40 0 70 4 70 10 0 6 -30 10 -70 10
-40 0 -70 -4 -70 -10z"/>
<path d="M1240 410 c0 -5 23 -10 51 -10 31 0 48 4 44 10 -3 6 -26 10 -51 10
-24 0 -44 -4 -44 -10z"/>
<path d="M5083 260 c0 -25 2 -35 4 -22 2 12 2 32 0 45 -2 12 -4 2 -4 -23z"/>
<path d="M4620 280 c0 -6 50 -10 130 -10 80 0 130 4 130 10 0 6 -50 10 -130
10 -80 0 -130 -4 -130 -10z"/>
<path d="M8143 243 c20 -2 54 -2 75 0 20 2 3 4 -38 4 -41 0 -58 -2 -37 -4z"/>
<path d="M8368 243 c18 -2 45 -2 60 0 15 2 0 4 -33 4 -33 0 -45 -2 -27 -4z"/>
</g>
</svg>
